<svg xmlns="http://www.w3.org/2000/svg" viewBox="0 0 1584 396" width="1584" height="396">
  <!-- LinkedIn page banner · 1584x396 (export as PNG) -->
  <defs>
    <linearGradient id="bg" x1="0" y1="0" x2="1" y2="1">
      <stop offset="0" stop-color="#0F172A"/>
      <stop offset="1" stop-color="#1E293B"/>
    </linearGradient>
    <linearGradient id="brand" x1="0" y1="0" x2="1" y2="0">
      <stop offset="0" stop-color="#3B82F6"/>
      <stop offset="1" stop-color="#8B5CF6"/>
    </linearGradient>
    <linearGradient id="symbolBrand" x1="0" y1="0" x2="1" y2="1">
      <stop offset="0" stop-color="#3B82F6"/>
      <stop offset="0.5" stop-color="#6366F1"/>
      <stop offset="1" stop-color="#8B5CF6"/>
    </linearGradient>
  </defs>

  <rect width="1584" height="396" fill="url(#bg)"/>

  <g fill="none" stroke="#334155" stroke-width="2" opacity="0.5">
    <polygon points="1460,30 1517,63 1517,129 1460,162 1403,129 1403,63"/>
    <polygon points="1520,150 1577,183 1577,249 1520,282 1463,249 1463,183"/>
  </g>

  <g transform="translate(500,85) scale(0.85)">
    <g fill="url(#symbolBrand)" stroke="url(#symbolBrand)" stroke-width="6" stroke-linejoin="round" transform="translate(-110,-40)">
      <polygon points="240,50 297.16,83 297.16,149 240,182 182.84,149 182.84,83"/>
      <polygon points="177.65,158 234.81,191 234.81,257 177.65,290 120.49,257 120.49,191"/>
      <polygon points="302.35,158 359.51,191 359.51,257 302.35,290 245.19,257 245.19,191"/>
    </g>
    <path d="M 130,62 L 171,179 L 130,152 L 89,179 Z" fill="#FFFFFF" stroke="#FFFFFF" stroke-width="3" stroke-linejoin="round"/>
  </g>

  <text x="770" y="195" font-family="Inter, system-ui, sans-serif" font-size="84" font-weight="800" letter-spacing="-2" fill="url(#brand)">ADHAR</text>
  <text x="774" y="248" font-family="Inter, system-ui, sans-serif" font-size="26" font-weight="600" fill="#E2E8F0">Open Cloud-Native Foundation</text>
  <text x="774" y="290" font-family="Inter, system-ui, sans-serif" font-size="21" font-weight="500" fill="#94A3B8">Built with ❤️ for developers · www.adhar.io</text>
</svg>
