<svg xmlns="http://www.w3.org/2000/svg" viewBox="0 0 1500 500" width="1500" height="500">
  <!-- X (Twitter) header · 1500x500 (export as PNG; keep key content in central safe area) -->
  <defs>
    <linearGradient id="bg" x1="0" y1="0" x2="1" y2="1">
      <stop offset="0" stop-color="#0F172A"/>
      <stop offset="1" stop-color="#1E293B"/>
    </linearGradient>
    <linearGradient id="brand" x1="0" y1="0" x2="1" y2="0">
      <stop offset="0" stop-color="#3B82F6"/>
      <stop offset="1" stop-color="#8B5CF6"/>
    </linearGradient>
    <linearGradient id="symbolBrand" x1="0" y1="0" x2="1" y2="1">
      <stop offset="0" stop-color="#3B82F6"/>
      <stop offset="0.5" stop-color="#6366F1"/>
      <stop offset="1" stop-color="#8B5CF6"/>
    </linearGradient>
  </defs>

  <rect width="1500" height="500" fill="url(#bg)"/>

  <g fill="none" stroke="#334155" stroke-width="2" opacity="0.5">
    <polygon points="1380,40 1437,73 1437,139 1380,172 1323,139 1323,73"/>
    <polygon points="1440,160 1497,193 1497,259 1440,292 1383,259 1383,193"/>
    <polygon points="60,340 117,373 117,439 60,472 3,439 3,373"/>
  </g>

  <g transform="translate(430,125) scale(1.0)">
    <g fill="url(#symbolBrand)" stroke="url(#symbolBrand)" stroke-width="6" stroke-linejoin="round" transform="translate(-110,-40)">
      <polygon points="240,50 297.16,83 297.16,149 240,182 182.84,149 182.84,83"/>
      <polygon points="177.65,158 234.81,191 234.81,257 177.65,290 120.49,257 120.49,191"/>
      <polygon points="302.35,158 359.51,191 359.51,257 302.35,290 245.19,257 245.19,191"/>
    </g>
    <path d="M 130,62 L 171,179 L 130,152 L 89,179 Z" fill="#FFFFFF" stroke="#FFFFFF" stroke-width="3" stroke-linejoin="round"/>
  </g>

  <text x="740" y="245" font-family="Inter, system-ui, sans-serif" font-size="96" font-weight="800" letter-spacing="-2" fill="url(#brand)">ADHAR</text>
  <text x="744" y="300" font-family="Inter, system-ui, sans-serif" font-size="28" font-weight="600" fill="#E2E8F0">Open Cloud-Native Foundation</text>
  <text x="744" y="345" font-family="Inter, system-ui, sans-serif" font-size="22" font-weight="500" fill="#94A3B8">Built with ❤️ for developers · www.adhar.io</text>
</svg>
