<?xml version="1.0" encoding="UTF-8" standalone="no"?>
<!-- Created with Inkscape (http://www.inkscape.org/) -->

<svg
   width="1706.7"
   height="1025.3"
   inkscape:version="1.3.2 (091e20e, 2023-11-25)"
   sodipodi:docname="path60.svg"
   version="1.1"
   viewBox="0 0 1706.7 1025.3"
   id="svg106"
   xmlns:inkscape="http://www.inkscape.org/namespaces/inkscape"
   xmlns:sodipodi="http://sodipodi.sourceforge.net/DTD/sodipodi-0.dtd"
   xmlns:xlink="http://www.w3.org/1999/xlink"
   xmlns="http://www.w3.org/2000/svg"
   xmlns:svg="http://www.w3.org/2000/svg">
  <defs
     id="defs55">
    <linearGradient
       id="swatch169"
       inkscape:swatch="solid">
      <stop
         style="stop-color:#6a83ac;stop-opacity:1;"
         offset="0"
         id="stop169" />
    </linearGradient>
    <linearGradient
       id="swatch160"
       inkscape:swatch="solid">
      <stop
         style="stop-color:#99b0cb;stop-opacity:1;"
         offset="0"
         id="stop160" />
    </linearGradient>
    <linearGradient
       id="linearGradient127"
       x2="1"
       gradientTransform="matrix(-246.32329,473.10447,-473.03433,-246.35948,2284.0477,266.22991)"
       gradientUnits="userSpaceOnUse">
      <stop
         stop-color="#0fcef7 icc-color(sRGB-IEC61966-2.1, 0.05882263, 0.80783081, 0.96861267)"
         offset="0"
         id="stop125" />
      <stop
         stop-color="#0fcef7 icc-color(sRGB-IEC61966-2.1, 0.05882263, 0.80783081, 0.96861267)"
         offset="1"
         id="stop126" />
      <stop
         stop-color="#b41ded icc-color(sRGB-IEC61966-2.1, 0.70587158, 0.11372375, 0.92939758)"
         offset="1"
         id="stop127" />
    </linearGradient>
    <linearGradient
       id="linearGradient123"
       x2="1"
       gradientTransform="matrix(-246.32329,473.10447,-473.03433,-246.35948,2153.9604,198.48255)"
       gradientUnits="userSpaceOnUse">
      <stop
         stop-color="#b41ded icc-color(sRGB-IEC61966-2.1, 0.70587158, 0.11372375, 0.92939758)"
         offset="0"
         id="stop123" />
      <stop
         stop-color="#0fcef7 icc-color(sRGB-IEC61966-2.1, 0.05882263, 0.80783081, 0.96861267)"
         offset="0.99999946"
         id="stop122" />
      <stop
         stop-color="#0fcef7 icc-color(sRGB-IEC61966-2.1, 0.05882263, 0.80783081, 0.96861267)"
         offset="1"
         id="stop121" />
    </linearGradient>
    <linearGradient
       id="swatch112"
       inkscape:swatch="solid">
      <stop
         style="stop-color:#808080;stop-opacity:1;"
         offset="0"
         id="stop112" />
    </linearGradient>
    <linearGradient
       id="linearGradient85"
       x2="1"
       gradientTransform="matrix(-128.19 -246.17 -246.17 128.19 425.18 539.3)"
       gradientUnits="userSpaceOnUse">
      <stop
         stop-color="#0fcef7 icc-color(sRGB-IEC61966-2.1, 0.05882263, 0.80783081, 0.96861267)"
         offset="0"
         id="stop1" />
      <stop
         stop-color="#0fcef7 icc-color(sRGB-IEC61966-2.1, 0.05882263, 0.80783081, 0.96861267)"
         offset="5.4e-7"
         id="stop2" />
      <stop
         stop-color="#b41ded icc-color(sRGB-IEC61966-2.1, 0.70587158, 0.11372375, 0.92939758)"
         offset="1"
         id="stop3" />
    </linearGradient>
    <linearGradient
       id="linearGradient97"
       x2="1"
       gradientTransform="matrix(-246.32329,473.10447,-473.03433,-246.35948,2153.9604,198.48255)"
       gradientUnits="userSpaceOnUse">
      <stop
         stop-color="#0fcef7 icc-color(sRGB-IEC61966-2.1, 0.05882263, 0.80783081, 0.96861267)"
         offset="0"
         id="stop4" />
      <stop
         stop-color="#0fcef7 icc-color(sRGB-IEC61966-2.1, 0.05882263, 0.80783081, 0.96861267)"
         offset="5.4e-7"
         id="stop5" />
      <stop
         stop-color="#b41ded icc-color(sRGB-IEC61966-2.1, 0.70587158, 0.11372375, 0.92939758)"
         offset="1"
         id="stop6" />
    </linearGradient>
    <linearGradient
       id="linearGradient100"
       x2="1"
       gradientTransform="matrix(-246.32329,473.10447,-473.03433,-246.35948,2284.0477,266.22991)"
       gradientUnits="userSpaceOnUse">
      <stop
         stop-color="#0fcef7 icc-color(sRGB-IEC61966-2.1, 0.05882263, 0.80783081, 0.96861267)"
         offset="0"
         id="stop7" />
      <stop
         stop-color="#0fcef7 icc-color(sRGB-IEC61966-2.1, 0.05882263, 0.80783081, 0.96861267)"
         offset="5.4e-7"
         id="stop8" />
      <stop
         stop-color="#b41ded icc-color(sRGB-IEC61966-2.1, 0.70587158, 0.11372375, 0.92939758)"
         offset="1"
         id="stop9" />
    </linearGradient>
    <linearGradient
       id="linearGradient103"
       x2="1"
       gradientTransform="matrix(-42.254431,81.15561,-81.143629,-42.260648,2092.7499,593.43784)"
       gradientUnits="userSpaceOnUse">
      <stop
         stop-color="#0fcef7 icc-color(sRGB-IEC61966-2.1, 0.05882263, 0.80783081, 0.96861267)"
         offset="0"
         id="stop10" />
      <stop
         stop-color="#0fcef7 icc-color(sRGB-IEC61966-2.1, 0.05882263, 0.80783081, 0.96861267)"
         offset="5.4e-7"
         id="stop11" />
      <stop
         stop-color="#b41ded icc-color(sRGB-IEC61966-2.1, 0.70587158, 0.11372375, 0.92939758)"
         offset="1"
         id="stop12" />
    </linearGradient>
    <linearGradient
       id="linearGradient106"
       x2="1"
       gradientTransform="matrix(-175.18086,336.4458,-336.3962,-175.2068,2267.5316,257.62387)"
       gradientUnits="userSpaceOnUse">
      <stop
         stop-color="#0fcef7 icc-color(sRGB-IEC61966-2.1, 0.05882263, 0.80783081, 0.96861267)"
         offset="0"
         id="stop13" />
      <stop
         stop-color="#0fcef7 icc-color(sRGB-IEC61966-2.1, 0.05882263, 0.80783081, 0.96861267)"
         offset="5.4e-7"
         id="stop14" />
      <stop
         stop-color="#b41ded icc-color(sRGB-IEC61966-2.1, 0.70587158, 0.11372375, 0.92939758)"
         offset="1"
         id="stop15" />
    </linearGradient>
    <clipPath
       id="clipPath109">
      <path
         transform="translate(-385.26 -356.78)"
         d="m0 769h1280v-769h-1280z"
         id="path15" />
    </clipPath>
    <clipPath
       id="clipPath111">
      <path
         transform="translate(-474.03 -370.28)"
         d="m0 769h1280v-769h-1280z"
         id="path16" />
    </clipPath>
    <clipPath
       id="clipPath113">
      <path
         transform="translate(-552.63 -426.86)"
         d="m0 769h1280v-769h-1280z"
         id="path17" />
    </clipPath>
    <clipPath
       id="clipPath115">
      <path
         transform="translate(-626.77 -356.78)"
         d="m0 769h1280v-769h-1280z"
         id="path18" />
    </clipPath>
    <clipPath
       id="clipPath117">
      <path
         transform="translate(-741.08 -426.86)"
         d="m0 769h1280v-769h-1280z"
         id="path19" />
    </clipPath>
    <linearGradient
       id="linearGradient119"
       x2="1"
       gradientTransform="matrix(38.41 -46.641 -46.641 -38.41 764.66 386.78)"
       gradientUnits="userSpaceOnUse">
      <stop
         stop-color="#0fcef7 icc-color(sRGB-IEC61966-2.1, 0.05882263, 0.80783081, 0.96861267)"
         offset="0"
         id="stop19" />
      <stop
         stop-color="#0fcef7 icc-color(sRGB-IEC61966-2.1, 0.05882263, 0.80783081, 0.96861267)"
         offset="5.4e-7"
         id="stop20" />
      <stop
         stop-color="#b41ded icc-color(sRGB-IEC61966-2.1, 0.70587158, 0.11372375, 0.92939758)"
         offset="1"
         id="stop21" />
    </linearGradient>
    <clipPath
       id="clipPath121">
      <path
         transform="translate(2.5e-5 -2.5e-5)"
         d="m0 769h1280v-769h-1280z"
         id="path21" />
    </clipPath>
    <clipPath
       id="clipPath123">
      <path
         transform="translate(-867.02 -414.61)"
         d="m0 769h1280v-769h-1280z"
         id="path22" />
    </clipPath>
    <clipPath
       id="clipPath125">
      <path
         transform="translate(-377.19 -332.93)"
         d="m0 769h1280v-769h-1280z"
         id="path23" />
    </clipPath>
    <clipPath
       id="clipPath127">
      <path
         transform="translate(-395.32 -335.03)"
         d="m0 769h1280v-769h-1280z"
         id="path24" />
    </clipPath>
    <clipPath
       id="clipPath129">
      <path
         transform="translate(-413.35 -335.03)"
         d="m0 769h1280v-769h-1280z"
         id="path25" />
    </clipPath>
    <clipPath
       id="clipPath131">
      <path
         transform="translate(-420.65 -323.02)"
         d="m0 769h1280v-769h-1280z"
         id="path26" />
    </clipPath>
    <clipPath
       id="clipPath133">
      <path
         transform="translate(-453.22 -335.03)"
         d="m0 769h1280v-769h-1280z"
         id="path27" />
    </clipPath>
    <clipPath
       id="clipPath135">
      <path
         transform="translate(-463.17 -332.93)"
         d="m0 769h1280v-769h-1280z"
         id="path28" />
    </clipPath>
    <clipPath
       id="clipPath137">
      <path
         transform="translate(-477.22 -335.03)"
         d="m0 769h1280v-769h-1280z"
         id="path29" />
    </clipPath>
    <clipPath
       id="clipPath139">
      <path
         transform="translate(-492.76 -323.02)"
         d="m0 769h1280v-769h-1280z"
         id="path30" />
    </clipPath>
    <clipPath
       id="clipPath141">
      <path
         transform="translate(-510.89 -325.33)"
         d="m0 769h1280v-769h-1280z"
         id="path31" />
    </clipPath>
    <clipPath
       id="clipPath143">
      <path
         transform="translate(-524.88 -323.02)"
         d="m0 769h1280v-769h-1280z"
         id="path32" />
    </clipPath>
    <clipPath
       id="clipPath145">
      <path
         transform="translate(-547.07 -335.03)"
         d="m0 769h1280v-769h-1280z"
         id="path33" />
    </clipPath>
    <clipPath
       id="clipPath147">
      <path
         transform="translate(2.5e-5 -2.5e-5)"
         d="m0 769h1280v-769h-1280z"
         id="path34" />
    </clipPath>
    <clipPath
       id="clipPath149">
      <path
         transform="translate(-563.98 -332.93)"
         d="m0 769h1280v-769h-1280z"
         id="path35" />
    </clipPath>
    <clipPath
       id="clipPath151">
      <path
         transform="translate(-578.08 -323.02)"
         d="m0 769h1280v-769h-1280z"
         id="path36" />
    </clipPath>
    <clipPath
       id="clipPath153">
      <path
         transform="translate(-610.65 -335.03)"
         d="m0 769h1280v-769h-1280z"
         id="path37" />
    </clipPath>
    <clipPath
       id="clipPath155">
      <path
         transform="translate(-620.6 -332.93)"
         d="m0 769h1280v-769h-1280z"
         id="path38" />
    </clipPath>
    <clipPath
       id="clipPath157">
      <path
         transform="translate(-639.09 -335.03)"
         d="m0 769h1280v-769h-1280z"
         id="path39" />
    </clipPath>
    <clipPath
       id="clipPath159">
      <path
         transform="translate(-656.15 -323.02)"
         d="m0 769h1280v-769h-1280z"
         id="path40" />
    </clipPath>
    <clipPath
       id="clipPath161">
      <path
         transform="translate(-683.17 -332.93)"
         d="m0 769h1280v-769h-1280z"
         id="path41" />
    </clipPath>
    <clipPath
       id="clipPath163">
      <path
         transform="translate(-697.28 -325.33)"
         d="m0 769h1280v-769h-1280z"
         id="path42" />
    </clipPath>
    <clipPath
       id="clipPath165">
      <path
         transform="translate(-720.35 -335.03)"
         d="m0 769h1280v-769h-1280z"
         id="path43" />
    </clipPath>
    <clipPath
       id="clipPath167">
      <path
         transform="translate(-732.05 -335.03)"
         d="m0 769h1280v-769h-1280z"
         id="path44" />
    </clipPath>
    <clipPath
       id="clipPath169">
      <path
         transform="translate(-742.83 -323.02)"
         d="m0 769h1280v-769h-1280z"
         id="path45" />
    </clipPath>
    <clipPath
       id="clipPath171">
      <path
         transform="translate(-768.16 -325.3)"
         d="m0 769h1280v-769h-1280z"
         id="path46" />
    </clipPath>
    <clipPath
       id="clipPath173">
      <path
         transform="translate(-783.41 -335.03)"
         d="m0 769h1280v-769h-1280z"
         id="path47" />
    </clipPath>
    <clipPath
       id="clipPath175">
      <path
         transform="translate(-806.14 -335.03)"
         d="m0 769h1280v-769h-1280z"
         id="path48" />
    </clipPath>
    <clipPath
       id="clipPath177">
      <path
         transform="translate(2.5e-5 -2.5e-5)"
         d="m0 769h1280v-769h-1280z"
         id="path49" />
    </clipPath>
    <clipPath
       id="clipPath179">
      <path
         transform="translate(-821.42 -323.02)"
         d="m0 769h1280v-769h-1280z"
         id="path50" />
    </clipPath>
    <clipPath
       id="clipPath181">
      <path
         transform="translate(-847.04 -335.03)"
         d="m0 769h1280v-769h-1280z"
         id="path51" />
    </clipPath>
    <clipPath
       id="clipPath183">
      <path
         transform="translate(-861.52 -335.03)"
         d="m0 769h1280v-769h-1280z"
         id="path52" />
    </clipPath>
    <clipPath
       id="clipPath185">
      <path
         transform="translate(-876.5 -335.03)"
         d="m0 769h1280v-769h-1280z"
         id="path53" />
    </clipPath>
    <clipPath
       id="clipPath187">
      <path
         transform="translate(-891.81 -335.03)"
         d="m0 769h1280v-769h-1280z"
         id="path54" />
    </clipPath>
    <clipPath
       id="clipPath189">
      <path
         transform="translate(-906.3 -335.03)"
         d="m0 769h1280v-769h-1280z"
         id="path55" />
    </clipPath>
    <linearGradient
       inkscape:collect="always"
       xlink:href="#swatch169"
       id="linearGradient169"
       x1="2513.2797"
       y1="420.44446"
       x2="3444.2746"
       y2="420.44446"
       gradientUnits="userSpaceOnUse" />
    <linearGradient
       inkscape:collect="always"
       xlink:href="#swatch169"
       id="linearGradient192"
       gradientUnits="userSpaceOnUse"
       gradientTransform="matrix(1.04517,0,0,0.95678216,-2.6611974e-6,-2.6823093e-6)"
       x1="2247.5825"
       y1="616.11224"
       x2="3092.6604"
       y2="616.11224" />
  </defs>
  <sodipodi:namedview
     bordercolor="#000000"
     borderopacity="0.25"
     inkscape:current-layer="g106"
     inkscape:cx="2535.7539"
     inkscape:cy="622.0946"
     inkscape:deskcolor="#d1d1d1"
     inkscape:lockguides="false"
     inkscape:pagecheckerboard="0"
     inkscape:pageopacity="0.0"
     inkscape:showpageshadow="2"
     inkscape:window-height="920"
     inkscape:window-maximized="1"
     inkscape:window-width="1472"
     inkscape:window-x="40"
     inkscape:window-y="34"
     inkscape:zoom="0.64379276"
     pagecolor="#ffffff"
     id="namedview57">
    <inkscape:page
       x="0"
       y="0"
       width="1706.7"
       height="1025.3"
       bleed="0"
       inkscape:label="1"
       margin="0"
       id="page55" />
    <inkscape:page
       x="1726.6667"
       y="0"
       width="1706.6667"
       height="1025.3333"
       inkscape:label="2"
       id="page56" />
    <inkscape:page
       x="3453.3333"
       y="0"
       width="1706.6667"
       height="1025.3333"
       inkscape:label="3"
       id="page57" />
  </sodipodi:namedview>
  <g
     inkscape:groupmode="layer"
     inkscape:label="Layer 1"
     id="g106">
    <path
       d="m-41.851 1017.6h1706.7v-1025.3h-1706.7z"
       display="none"
       fill="#000120 icc-color(sRGB-IEC61966-2, 0.1, 0, 0.0039978, 0.125)"
       sodipodi:insensitive="true"
       id="path57" />
    <path
       transform="matrix(1.3333,0,0,-1.3333,0,1025.3)"
       d="m 389.67,497.42 c -4.177,-0.002 -8.209,-1.2461 -11.625,-3.5171 -3.416,-2.265 -6.2285,-5.5978 -7.8545,-9.6768 -1.015,-2.533 -1.5015,-5.1833 -1.5015,-7.7783 0.002,-4.177 1.2471,-8.2099 3.5171,-11.628 0.867,-1.308 1.8951,-2.5265 3.0601,-3.6255 l -66.309,-163.99 h 16.588 l 63.992,158.26 c 0.042,0 0.0854,-0.003 0.12744,-0.003 4.176,0.002 8.209,1.2481 11.625,3.5171 3.415,2.265 6.229,5.6002 7.856,9.6782 l -7.1382,2.8535 7.1382,-2.852 c 1.013,2.532 1.501,5.1819 1.5,7.7769 -0.002,4.177 -1.2481,8.2109 -3.5171,11.628 -2.265,3.414 -5.5992,6.2285 -9.6782,7.8545 -2.53,1.012 -5.1785,1.5 -7.7725,1.5 h -0.007 z m 0,-15.374 c 0.687,-0.002 1.3752,-0.1253 2.0742,-0.4043 1.12,-0.45 1.965,-1.1699 2.581,-2.0889 0.61,-0.917 0.94729,-2.0167 0.94629,-3.1157 -0.002,-0.685 -0.12529,-1.3718 -0.40429,-2.0728 -0.45,-1.119 -1.1709,-1.9636 -2.0889,-2.5796 -0.915,-0.60899 -2.0105,-0.94628 -3.1055,-0.94628 h -0.009 c -0.687,0.001 -1.3747,0.12529 -2.0757,0.40429 -1.119,0.451 -1.9636,1.1709 -2.5796,2.0889 -0.611,0.917 -0.94729,2.0167 -0.94629,3.1157 0.001,0.686 0.12483,1.3723 0.40283,2.0713 0.451,1.12 1.1713,1.9651 2.0903,2.5811 0.917,0.611 2.0153,0.94729 3.1143,0.94629 z m 18.514,-28.305 -55.616,-140.23 c -0.169,0.005 -0.33884,0.0234 -0.50684,0.0234 -4.177,-0.002 -8.2105,-1.2471 -11.626,-3.5171 -3.415,-2.264 -6.2285,-5.6007 -7.8545,-9.6797 -1.014,-2.533 -1.5025,-5.1823 -1.5015,-7.7783 0.002,-4.175 1.2461,-8.21 3.5171,-11.625 2.264,-3.416 5.5992,-6.2285 9.6782,-7.8545 2.533,-1.013 5.1823,-1.5025 7.7783,-1.5015 4.177,10e-4 8.2105,1.2461 11.626,3.5171 3.416,2.264 6.2295,5.6002 7.8545,9.6782 h 0.001 c 1.013,2.533 1.5,5.1823 1.5,7.7783 -0.002,4.177 -1.2471,8.2109 -3.5171,11.628 -0.875,1.321 -1.9172,2.5492 -3.0952,3.6562 l 41.761,104.47 11.925,-29.843 c -0.126,-0.315 -0.25915,-0.64853 -0.41015,-1.0195 -0.801,-1.966 -1.9499,-4.6672 -3.3179,-7.8472 -4.823,-11.143 -12.452,-28.168 -18.861,-42.387 -0.485,-1.075 -0.96262,-2.1261 -1.4326,-3.1611 h 16.865 c 1.521,3.374 3.0887,6.8604 4.6597,10.356 3.748,8.359 7.496,16.767 10.585,23.818 l 12.451,-31.166 -7.3857,-18.482 h -50.865 c 3.034,-4.596 4.9921,-9.8545 5.7041,-15.374 h 55.566 l 13.537,33.855 -21.746,54.422 c -0.007,0.021 -0.0125,0.0381 -0.0205,0.0601 l -0.003,-0.003 -27.25,68.2 z m 93.233,-24.929 c -6.128,0 -11.445,-1.763 -15.951,-5.291 -4.4157,-3.528 -6.624,-7.7762 -6.624,-12.744 v -62.963 h 22.575 v 35.963 h 22.573 v -35.963 h 22.44 v 62.963 c 0,4.896 -2.2083,9.1078 -6.624,12.636 -4.4157,3.6 -9.688,5.3994 -15.816,5.3994 h -22.573 z m 67.729,0 v -80.999 h 45.148 c 6.128,0 11.4,1.763 15.816,5.291 4.4157,3.6 6.624,7.8482 6.624,12.744 v 44.928 c 0,4.896 -2.2083,9.1078 -6.624,12.636 -4.4157,3.6 -9.688,5.3994 -15.816,5.3994 h -45.148 z m 90.303,0 v -80.999 h 22.573 v 35.963 h 22.575 v -35.963 h 22.44 v 80.999 h -22.44 v -35.963 h -22.575 v 35.963 z m 112.88,0 c -6.128,0 -11.445,-1.763 -15.951,-5.291 -4.4157,-3.528 -6.624,-7.7762 -6.624,-12.744 v -62.963 h 22.575 v 35.963 h 22.575 v -35.963 h 22.438 v 62.963 c 0,4.896 -2.2068,9.1078 -6.6226,12.636 -4.4157,3.6 -9.688,5.3994 -15.816,5.3994 h -22.575 z m 67.729,0 v -80.999 h 22.575 v 35.963 h 11.219 c 3.1541,0 5.8133,-0.89972 7.9761,-2.6997 2.2529,-1.728 3.3794,-3.8157 3.3794,-6.2637 v -27 h 22.438 v 31.859 c 0,2.52 -1.1265,4.6441 -3.3794,6.3721 -2.1628,1.8 -4.7759,2.6997 -7.8398,2.6997 h -11.219 c 8.1105,0 13.878,1.8373 17.303,5.5093 3.4244,3.744 5.1357,7.6311 5.1357,11.663 v 4.8604 c 0,4.896 -2.2083,9.1078 -6.624,12.636 -4.4157,3.6 -9.6865,5.3994 -15.814,5.3994 h -45.149 z m -327.42,-8.9634 c 3.1541,0 5.8118,-0.89972 7.9746,-2.6997 2.2529,-1.728 3.3794,-3.8521 3.3794,-6.3721 v -17.928 h -22.573 v 17.928 c 0,2.52 1.0804,4.6441 3.2432,6.3721 2.2529,1.8 4.9121,2.6997 7.9761,2.6997 z m 79.083,0 h 11.221 c 3.1541,0 5.8118,-0.89972 7.9746,-2.6997 2.2529,-1.728 3.3794,-3.8521 3.3794,-6.3721 v -44.928 c 0,-2.448 -1.1265,-4.5721 -3.3794,-6.3721 -2.1628,-1.8 -4.8205,-2.6997 -7.9746,-2.6997 h -11.221 v 63.072 z m 191.83,0 c 3.1541,0 5.8133,-0.89972 7.9761,-2.6997 2.2529,-1.728 3.3794,-3.8521 3.3794,-6.3721 v -17.928 h -22.575 v 17.928 c 0,2.52 1.0818,4.6441 3.2446,6.3721 2.2529,1.8 4.9106,2.6997 7.9746,2.6997 z m 79.084,0 h 11.219 c 3.1541,0 5.8133,-0.89972 7.9761,-2.6997 2.2529,-1.728 3.3794,-3.8521 3.3794,-6.3721 v -8.9634 c 0,-2.448 -1.1265,-4.5721 -3.3794,-6.3721 -2.1628,-1.728 -4.822,-2.5928 -7.9761,-2.5928 h -11.219 v 27 z m -364.53,-86 -1.8135,-0.6621 v -16.992 h 2.5327 v 8.6558 c 0.28143,0.25123 0.57558,0.47999 0.88184,0.68555 0.30626,0.20555 0.61219,0.38123 0.91845,0.52587 0.30626,0.15227 0.60876,0.26929 0.90674,0.35303 0.29798,0.0837 0.57888,0.12598 0.84375,0.12598 0.59597,0 1.0856,-0.20149 1.4663,-0.60498 0.38075,-0.39588 0.56982,-0.98274 0.56982,-1.7593 v -7.9819 h 2.521 v 8.3818 c 0,0.48724 -0.082,0.94476 -0.24756,1.3711 -0.16554,0.43394 -0.39438,0.81111 -0.68408,1.1309 -0.28971,0.31975 -0.62903,0.57021 -1.0181,0.75293 -0.38075,0.18271 -0.79375,0.27392 -1.2407,0.27392 -0.85256,0 -1.6967,-0.19738 -2.5327,-0.59326 -0.83601,-0.38827 -1.6315,-0.97923 -2.3848,-1.771 v 8.1079 h -0.71924 z m 130.67,0 -1.8003,-0.6621 v -16.992 h 2.5327 v 17.654 h -0.73242 z m 47.621,0 -1.7754,-0.6621 v -6.1655 c -0.39731,0.32736 -0.82846,0.58868 -1.292,0.78662 -0.45525,0.19794 -0.992,0.29736 -1.6128,0.29736 -0.91878,0 -1.7845,-0.17421 -2.5957,-0.52441 -0.80289,-0.3502 -1.5066,-0.81858 -2.1108,-1.4048 -0.60424,-0.57859 -1.084,-1.2417 -1.4399,-1.9878 -0.34764,-0.74608 -0.52148,-1.5154 -0.52148,-2.3071 0,-0.79938 0.14045,-1.5604 0.42187,-2.2837 0.28143,-0.71563 0.6625,-1.3433 1.1426,-1.8838 0.48836,-0.54053 1.0551,-0.97078 1.7007,-1.2905 0.6539,-0.31975 1.3542,-0.479 2.0991,-0.479 0.35592,0 0.72029,0.034 1.0928,0.10254 0.37248,0.0609 0.74029,0.14801 1.1045,0.2622 0.37248,0.12181 0.72851,0.26611 1.0679,0.4336 0.33937,0.1751 0.65366,0.36984 0.94336,0.58301 v -1.1309 h 2.5078 v 17.654 h -0.73243 z m 167.69,0 -1.7754,-0.6621 v -6.1655 c -0.39731,0.32736 -0.827,0.58868 -1.2905,0.78662 -0.45525,0.19794 -0.99346,0.29736 -1.6142,0.29736 -0.91878,0 -1.7845,-0.17421 -2.5957,-0.52441 -0.80289,-0.3502 -1.5066,-0.81858 -2.1108,-1.4048 -0.60424,-0.57859 -1.084,-1.2417 -1.4399,-1.9878 -0.34765,-0.74608 -0.52148,-1.5154 -0.52148,-2.3071 0,-0.79938 0.14044,-1.5604 0.42187,-2.2837 0.28143,-0.71563 0.6625,-1.3433 1.1426,-1.8838 0.48836,-0.54053 1.0551,-0.97078 1.7007,-1.2905 0.65391,-0.31975 1.3542,-0.479 2.0991,-0.479 0.35593,0 0.7203,0.034 1.0928,0.10254 0.37248,0.0609 0.74029,0.14801 1.1045,0.2622 0.37248,0.12181 0.7285,0.26611 1.0679,0.4336 0.33937,0.1751 0.65366,0.36984 0.94336,0.58301 v -1.1309 h 2.5078 v 17.654 h -0.73242 z m -111.38,-0.15966 c -0.19866,0 -0.38575,-0.034 -0.55957,-0.10254 -0.17382,-0.0685 -0.32606,-0.16384 -0.4585,-0.28565 -0.13243,-0.12181 -0.23605,-0.262 -0.31054,-0.42187 -0.0745,-0.15988 -0.1128,-0.33145 -0.1128,-0.51416 0,-0.18272 0.0383,-0.35429 0.1128,-0.51416 0.0745,-0.15988 0.17811,-0.30007 0.31054,-0.42188 0.13244,-0.12181 0.28468,-0.21712 0.4585,-0.28564 0.17382,-0.0685 0.36091,-0.10254 0.55957,-0.10254 0.19865,0 0.38428,0.034 0.5581,0.10254 0.17383,0.0685 0.32753,0.16383 0.45997,0.28564 0.13243,0.12181 0.23605,0.262 0.31054,0.42188 0.0745,0.15987 0.11133,0.33144 0.11133,0.51416 0,0.18271 -0.0368,0.35428 -0.11133,0.51416 -0.0745,0.15987 -0.17811,0.30006 -0.31054,0.42187 -0.13244,0.12181 -0.28614,0.21713 -0.45997,0.28565 -0.17382,0.0685 -0.35945,0.10254 -0.5581,0.10254 z m 141.93,0 c -0.19865,0 -0.38428,-0.034 -0.5581,-0.10254 -0.17382,-0.0685 -0.32753,-0.16384 -0.45996,-0.28565 -0.13244,-0.12181 -0.23605,-0.262 -0.31055,-0.42187 -0.0745,-0.15988 -0.11133,-0.33145 -0.11133,-0.51416 0,-0.18272 0.0368,-0.35429 0.11133,-0.51416 0.0745,-0.15988 0.17811,-0.30007 0.31055,-0.42188 0.13243,-0.12181 0.28614,-0.21712 0.45996,-0.28564 0.17382,-0.0685 0.35945,-0.10254 0.5581,-0.10254 0.19866,0 0.38575,0.034 0.55957,0.10254 0.17383,0.0685 0.32606,0.16383 0.4585,0.28564 0.13244,0.12181 0.23605,0.262 0.31055,0.42188 0.0745,0.15987 0.11279,0.33144 0.11279,0.51416 0,0.18271 -0.0383,0.35428 -0.11279,0.51416 -0.0745,0.15987 -0.17811,0.30006 -0.31055,0.42187 -0.13244,0.12181 -0.28467,0.21713 -0.4585,0.28565 -0.17382,0.0685 -0.36091,0.10254 -0.55957,0.10254 z m -150.96,-1.8267 -1.8003,-0.65039 v -3.3237 l -2.2104,-0.55958 v -0.43359 h 2.2104 v -8.2339 c 0,-0.40349 0.0486,-0.77244 0.14795,-1.1074 0.0993,-0.32736 0.24813,-0.61331 0.44678,-0.85693 0.20693,-0.23601 0.46769,-0.41843 0.78223,-0.54785 0.31453,-0.13704 0.68381,-0.20508 1.106,-0.20508 0.81946,0 1.5065,0.15515 2.061,0.46728 0.55458,0.31214 1.0059,0.73828 1.3535,1.2788 l -0.63428,0.38819 c -0.17383,-0.19033 -0.37615,-0.34958 -0.60791,-0.47901 -0.23177,-0.12942 -0.48762,-0.19482 -0.76905,-0.19482 -0.19865,0 -0.38084,0.0314 -0.54638,0.0923 -0.16555,0.0685 -0.3109,0.15973 -0.43506,0.27393 -0.11588,0.1142 -0.21115,0.24764 -0.28565,0.3999 -0.0662,0.15226 -0.0996,0.31562 -0.0996,0.49072 v 8.2339 h 2.8315 v 0.99317 h -2.8315 v 3.9741 h -0.71924 z m 141.93,0 -1.8003,-0.65039 v -3.3237 l -2.2104,-0.55958 v -0.43359 h 2.2104 v -8.2339 c 0,-0.40349 0.0501,-0.77244 0.14941,-1.1074 0.0993,-0.32736 0.24812,-0.61331 0.44678,-0.85693 0.20693,-0.23601 0.46769,-0.41843 0.78223,-0.54785 0.31453,-0.13704 0.68235,-0.20508 1.1045,-0.20508 0.81945,0 1.5065,0.15515 2.061,0.46728 0.55458,0.31214 1.0059,0.73828 1.3535,1.2788 l -0.63281,0.38819 c -0.17383,-0.19033 -0.37615,-0.34958 -0.60791,-0.47901 -0.23177,-0.12942 -0.48908,-0.19482 -0.77051,-0.19482 -0.19866,0 -0.38084,0.0314 -0.54639,0.0923 -0.16554,0.0685 -0.30943,0.15973 -0.43359,0.27393 -0.11588,0.1142 -0.21115,0.24764 -0.28565,0.3999 -0.0662,0.15226 -0.0996,0.31562 -0.0996,0.49072 v 8.2339 h 2.8301 v 0.99317 h -2.8301 v 3.9741 h -0.7207 z m -324.18,-0.18311 c -0.84428,0 -1.66,-0.0953 -2.4463,-0.28564 -0.77807,-0.18272 -1.5019,-0.4455 -2.1724,-0.78809 -0.67046,-0.33498 -1.2823,-0.74205 -1.8369,-1.2217 -0.5463,-0.47201 -1.0143,-0.99758 -1.4033,-1.5762 -0.38903,-0.5786 -0.69153,-1.2021 -0.90674,-1.8721 -0.20693,-0.66995 -0.31054,-1.3671 -0.31054,-2.0903 0,-1.1039 0.23227,-2.1427 0.6958,-3.1172 0.4718,-0.96687 1.1136,-1.815 1.9248,-2.5459 0.81945,-0.72324 1.779,-1.2952 2.8799,-1.7139 1.1092,-0.41872 2.301,-0.62842 3.5757,-0.62842 0.85256,0 1.6682,0.0953 2.4463,0.28565 0.77806,0.19033 1.5019,0.46132 2.1724,0.81152 0.67874,0.35021 1.2921,0.76814 1.8384,1.2554 0.5463,0.48724 1.0128,1.0278 1.4018,1.6216 0.39731,0.59382 0.69981,1.2297 0.90674,1.9072 0.21521,0.67757 0.32373,1.3856 0.32373,2.124 0,0.72324 -0.10852,1.4204 -0.32373,2.0903 -0.20693,0.66995 -0.50943,1.2935 -0.90674,1.8721 -0.38903,0.57859 -0.85555,1.1042 -1.4018,1.5762 -0.5463,0.47963 -1.1596,0.8867 -1.8384,1.2217 -0.67046,0.34259 -1.3943,0.60537 -2.1724,0.78809 -0.77807,0.19032 -1.5937,0.28564 -2.4463,0.28564 z m 74.244,0 c -0.91878,0 -1.7845,-0.098 -2.5957,-0.2959 -0.81118,-0.19033 -1.5601,-0.46542 -2.2471,-0.82324 -0.67874,-0.3502 -1.2906,-0.77224 -1.8369,-1.2671 -0.53802,-0.48724 -0.99766,-1.0278 -1.3784,-1.6216 -0.37247,-0.58621 -0.65827,-1.2179 -0.85693,-1.8955 -0.19865,-0.66995 -0.29883,-1.3589 -0.29883,-2.0669 0,-1.0658 0.21558,-2.0788 0.646,-3.0381 0.43869,-0.95164 1.0555,-1.7849 1.8501,-2.5005 0.7946,-0.7156 1.7473,-1.2834 2.8564,-1.7022 1.1174,-0.41872 2.3579,-0.62842 3.7236,-0.62842 0.94362,0 1.7961,0.10764 2.5576,0.32081 0.76979,0.21316 1.4568,0.49765 2.061,0.85546 0.61252,0.36543 1.1507,0.78072 1.6143,1.2451 0.46352,0.47201 0.86473,0.96356 1.2041,1.4736 l -1.166,0.68555 c -0.23176,-0.42633 -0.53082,-0.84983 -0.89502,-1.2686 -0.3642,-0.41111 -0.77719,-0.78417 -1.2407,-1.1191 -0.45525,-0.32737 -0.95172,-0.59279 -1.4898,-0.79834 -0.53802,-0.20556 -1.0978,-0.30909 -1.6772,-0.30909 -0.96845,0 -1.8661,0.15251 -2.6938,0.45704 -0.82773,0.31213 -1.5481,0.75734 -2.1606,1.3359 -0.60424,0.58621 -1.0791,1.2983 -1.4268,2.1358 -0.34765,0.84505 -0.52149,1.7968 -0.52149,2.855 0,1.0658 0.17384,2.0216 0.52149,2.8667 0.35592,0.85266 0.83914,1.5756 1.4517,2.1694 0.62079,0.59382 1.3461,1.0499 2.1738,1.3696 0.82773,0.31975 1.7171,0.48047 2.669,0.48047 1.1092,0 2.0903,-0.28595 2.9429,-0.85694 0.85256,-0.56337 1.6216,-1.4579 2.3086,-2.6836 l 1.2041,0.73096 c -0.33937,0.51007 -0.74892,0.99751 -1.229,1.4619 -0.4718,0.47201 -1.0134,0.8873 -1.626,1.2451 -0.60425,0.35781 -1.2795,0.6423 -2.0244,0.85547 -0.73668,0.22078 -1.5425,0.33105 -2.4199,0.33105 z m -136.93,-0.34277 v -0.98145 h 5.9604 v -14.161 h 2.7686 v 14.161 h 5.959 v 0.98145 z m 210.44,0 v -15.142 h 1.2539 v 11.956 h 0.0996 l 11.684,-12.311 h 0.646 v 15.497 h -1.2173 v -11.077 h -0.12451 l -10.789,11.077 z m 84.031,0 v -15.142 h 2.7686 v 7.7651 h 5.811 v 0.98291 h -5.811 v 5.4126 h 8.0332 v 0.98145 h -10.802 z m -231.79,-0.39844 c 0.94361,0 1.776,-0.17568 2.4961,-0.52588 0.7284,-0.34259 1.3403,-0.83003 1.8369,-1.4619 0.49663,-0.62428 0.86935,-1.3704 1.1177,-2.2383 0.2566,-0.8679 0.38526,-1.8237 0.38526,-2.8667 0,-1.0506 -0.12866,-2.0173 -0.38526,-2.9004 -0.24832,-0.88312 -0.62104,-1.6483 -1.1177,-2.2954 -0.49664,-0.64712 -1.1085,-1.1536 -1.8369,-1.519 -0.72012,-0.35781 -1.5525,-0.53613 -2.4961,-0.53613 -0.96017,0 -1.8043,0.17832 -2.5327,0.53613 -0.72012,0.36543 -1.3286,0.87193 -1.8252,1.519 -0.48836,0.64711 -0.85618,1.4123 -1.1045,2.2954 -0.24832,0.88312 -0.37208,1.8498 -0.37208,2.9004 0,1.043 0.12376,1.9988 0.37208,2.8667 0.24831,0.86789 0.61613,1.614 1.1045,2.2383 0.49663,0.63188 1.1051,1.1193 1.8252,1.4619 0.7284,0.3502 1.5726,0.52588 2.5327,0.52588 z m -24.463,-2.833 c -0.94361,0 -1.7996,-0.16336 -2.5693,-0.49072 -0.76151,-0.32736 -1.4151,-0.78078 -1.9614,-1.3594 -0.5463,-0.57859 -0.9691,-1.2675 -1.2671,-2.0669 -0.29798,-0.79176 -0.44677,-1.6549 -0.44677,-2.5913 0,-0.77654 0.16058,-1.5118 0.4834,-2.2046 0.33109,-0.68518 0.77894,-1.2829 1.3418,-1.793 0.56286,-0.51008 1.2214,-0.91305 1.9746,-1.21 0.76151,-0.29691 1.5723,-0.44531 2.4331,-0.44531 0.6539,0 1.2992,0.11291 1.9365,0.34131 0.63735,0.22839 1.2256,0.53751 1.7637,0.92578 0.5463,0.39588 1.0212,0.85604 1.4268,1.3814 0.40559,0.5253 0.69974,1.089 0.88184,1.6904 l -0.73242,0.29736 c -0.11589,-0.36543 -0.31821,-0.71942 -0.60792,-1.062 -0.2897,-0.34259 -0.64228,-0.64761 -1.0562,-0.91406 -0.40558,-0.26646 -0.86032,-0.48291 -1.3652,-0.6504 -0.50492,-0.15987 -1.0299,-0.24023 -1.5762,-0.24023 -0.65391,0 -1.254,0.13755 -1.8003,0.41162 -0.5463,0.27407 -1.0192,0.65388 -1.4165,1.1411 -0.39731,0.48724 -0.70669,1.0659 -0.93018,1.7358 -0.21521,0.66996 -0.32373,1.397 -0.32373,2.1812 h 9.4732 c 0,0.64711 -0.14045,1.268 -0.42188,1.8618 -0.27315,0.59383 -0.66256,1.1153 -1.1675,1.5645 -0.49663,0.45678 -1.0918,0.81899 -1.7871,1.0854 -0.69529,0.27407 -1.4574,0.41015 -2.2852,0.41015 z m 39.252,0 -1.812,-0.65039 v -16.182 h 2.5327 v 5.5269 c 0.2566,-0.15226 0.50901,-0.2816 0.75733,-0.38819 0.25659,-0.10658 0.51735,-0.19369 0.78222,-0.2622 0.27315,-0.0685 0.55896,-0.1175 0.85694,-0.14795 0.30626,-0.0381 0.63233,-0.0571 0.97998,-0.0571 0.95189,0 1.8127,0.16336 2.5825,0.49072 0.76979,0.33498 1.4234,0.79925 1.9614,1.3931 0.53803,0.59382 0.95249,1.2977 1.2422,2.1123 0.28971,0.82222 0.43506,1.7167 0.43506,2.6836 0,0.75369 -0.12031,1.4617 -0.36035,2.124 -0.23177,0.66995 -0.56765,1.2527 -1.0064,1.7476 -0.43042,0.49485 -0.95193,0.88697 -1.5644,1.1763 -0.61247,0.28933 -1.2946,0.43359 -2.0478,0.43359 -0.53803,0 -1.0345,-0.0804 -1.4898,-0.24023 -0.45525,-0.15988 -0.87315,-0.36811 -1.2539,-0.62696 -0.37247,-0.25123 -0.71671,-0.53307 -1.0312,-0.84521 -0.30626,-0.31214 -0.58715,-0.61715 -0.84375,-0.91406 v 2.6265 h -0.7207 z m 19.482,0 c -0.94361,0 -1.7996,-0.16336 -2.5693,-0.49072 -0.76151,-0.32736 -1.4166,-0.78078 -1.9629,-1.3594 -0.5463,-0.57859 -0.96765,-1.2675 -1.2656,-2.0669 -0.29798,-0.79176 -0.44678,-1.6549 -0.44678,-2.5913 0,-0.77654 0.16059,-1.5118 0.4834,-2.2046 0.33109,-0.68518 0.77894,-1.2829 1.3418,-1.793 0.56285,-0.51008 1.2199,-0.91305 1.9731,-1.21 0.76151,-0.29691 1.5737,-0.44531 2.4346,-0.44531 0.65391,0 1.2992,0.11291 1.9365,0.34131 0.63735,0.22839 1.2242,0.53751 1.7622,0.92578 0.54631,0.39588 1.0226,0.85604 1.4282,1.3814 0.40558,0.5253 0.69973,1.089 0.88183,1.6904 l -0.73242,0.29736 c -0.11588,-0.36543 -0.3182,-0.71942 -0.60791,-1.062 -0.2897,-0.34259 -0.64229,-0.64761 -1.0562,-0.91406 -0.40559,-0.26646 -0.86032,-0.48291 -1.3652,-0.6504 -0.50491,-0.15987 -1.0313,-0.24023 -1.5776,-0.24023 -0.65391,0 -1.254,0.13755 -1.8003,0.41162 -0.5463,0.27407 -1.0177,0.65388 -1.415,1.1411 -0.39731,0.48724 -0.70816,1.0659 -0.93164,1.7358 -0.21521,0.66996 -0.32227,1.397 -0.32227,2.1812 h 9.4731 c 0,0.64711 -0.14044,1.268 -0.42187,1.8618 -0.27315,0.59383 -0.66257,1.1153 -1.1675,1.5645 -0.49664,0.45678 -1.0918,0.81899 -1.7871,1.0854 -0.69529,0.27407 -1.4574,0.41015 -2.2852,0.41015 z m 11.561,0 -1.812,-0.65039 v -11.26 h 2.5327 v 8.6558 c 0.28143,0.25123 0.57558,0.47999 0.88184,0.68555 0.30626,0.20555 0.6122,0.38123 0.91846,0.52587 0.31453,0.15227 0.62047,0.26929 0.91845,0.35303 0.29799,0.0838 0.58035,0.12598 0.84522,0.12598 0.29798,0 0.56562,-0.0531 0.80566,-0.15967 0.24832,-0.099 0.4639,-0.24737 0.646,-0.44531 0.1821,-0.19794 0.32255,-0.44577 0.42187,-0.74268 0.0993,-0.2893 0.14942,-0.62833 0.14942,-1.0166 v -7.9819 h 2.521 v 8.3818 c 0,0.48724 -0.0835,0.94476 -0.24902,1.3711 -0.16555,0.43394 -0.39291,0.81111 -0.68262,1.1309 -0.2897,0.31975 -0.62903,0.57021 -1.0181,0.75293 -0.38076,0.18271 -0.79522,0.27392 -1.2422,0.27392 -0.85256,0 -1.6918,-0.19738 -2.5195,-0.59326 -0.82773,-0.38827 -1.6267,-0.97923 -2.3965,-1.771 v 2.3643 h -0.7207 z m 52.737,0 c -0.97672,0 -1.8744,-0.16336 -2.6938,-0.49072 -0.81945,-0.31975 -1.5266,-0.76085 -2.1226,-1.3242 -0.596,-0.56335 -1.064,-1.2265 -1.4033,-1.9878 -0.33109,-0.7537 -0.49658,-1.5611 -0.49658,-2.4214 0,-0.82221 0.16549,-1.5941 0.49658,-2.3174 0.33937,-0.71563 0.80736,-1.3433 1.4033,-1.8838 0.59596,-0.53292 1.3031,-0.95642 2.1226,-1.2686 0.81945,-0.31213 1.7171,-0.46728 2.6938,-0.46728 0.96844,0 1.8592,0.16746 2.6704,0.50244 0.81945,0.34259 1.5266,0.80275 2.1226,1.3814 0.59596,0.58621 1.059,1.2669 1.3901,2.0435 0.33937,0.78414 0.50977,1.6188 0.50977,2.502 0,0.79937 -0.1704,1.5455 -0.50977,2.2383 -0.33109,0.7004 -0.79417,1.309 -1.3901,1.8267 -0.59597,0.51769 -1.3031,0.92477 -2.1226,1.2217 -0.81118,0.29691 -1.702,0.44531 -2.6704,0.44531 z m 72.381,0 c -0.64563,0 -1.2708,-0.0721 -1.875,-0.21679 -0.59597,-0.14465 -1.1293,-0.35435 -1.6011,-0.62842 -0.4718,-0.26646 -0.86466,-0.59729 -1.1792,-0.99317 -0.30626,-0.39588 -0.49335,-0.84519 -0.55957,-1.3476 h 2.3101 c 0.0497,0.32736 0.14493,0.63648 0.28565,0.92578 0.14899,0.29691 0.33462,0.55148 0.5581,0.76465 0.23177,0.22078 0.49743,0.39645 0.79541,0.52588 0.29798,0.12942 0.62406,0.19335 0.97998,0.19335 0.37248,0 0.69167,-0.049 0.95655,-0.14794 0.27315,-0.0914 0.49707,-0.25208 0.67089,-0.48047 0.17383,-0.22078 0.30102,-0.51348 0.38379,-0.87891 0.0828,-0.36543 0.12452,-0.81474 0.12452,-1.3477 v -0.73095 c -0.56286,-0.12943 -1.1414,-0.26962 -1.7373,-0.42188 -0.5959,-0.15226 -1.1759,-0.32794 -1.7388,-0.52588 -0.56285,-0.19032 -1.0927,-0.41087 -1.5894,-0.66211 -0.49664,-0.24362 -0.93468,-0.52546 -1.3154,-0.84521 -0.37248,-0.31214 -0.66663,-0.67024 -0.88184,-1.0737 -0.21521,-0.4035 -0.32373,-0.85545 -0.32373,-1.3579 0,-0.41111 0.0751,-0.79648 0.22412,-1.1543 0.15727,-0.35781 0.37285,-0.66547 0.646,-0.92432 0.28142,-0.25884 0.62075,-0.46033 1.0181,-0.60498 0.40559,-0.15226 0.85688,-0.22851 1.3535,-0.22851 0.53802,0 1.0094,0.0572 1.415,0.17139 0.41386,0.11419 0.78658,0.25849 1.1177,0.43359 0.33937,0.18271 0.64875,0.3842 0.93018,0.60498 0.2897,0.22078 0.58385,0.43458 0.88184,0.64014 0,-0.35782 0.11196,-0.67779 0.33544,-0.95948 0.23177,-0.27407 0.51266,-0.48787 0.84375,-0.64013 h 2.5342 c -0.33109,0.15226 -0.61345,0.36606 -0.84521,0.64013 -0.22349,0.28169 -0.33545,0.60166 -0.33545,0.95948 v 7.2173 c 0,0.4644 -0.0737,0.88644 -0.22266,1.2671 -0.14071,0.38827 -0.38133,0.71499 -0.7207,0.98145 -0.33937,0.26646 -0.79066,0.47205 -1.3535,0.6167 -0.56285,0.15226 -1.2582,0.22851 -2.0859,0.22851 z m 20.862,0 -1.7754,-0.66211 v -11.249 h 2.5078 v 11.911 h -0.73242 z m 24.028,0 c -0.94361,0 -1.7996,-0.16336 -2.5693,-0.49072 -0.76151,-0.32736 -1.4151,-0.78078 -1.9614,-1.3594 -0.5463,-0.57859 -0.9691,-1.2675 -1.2671,-2.0669 -0.29798,-0.79176 -0.44677,-1.6549 -0.44677,-2.5913 0,-0.77654 0.16205,-1.5118 0.48486,-2.2046 0.33109,-0.68518 0.77748,-1.2829 1.3403,-1.793 0.56286,-0.51008 1.2214,-0.91305 1.9746,-1.21 0.76151,-0.29691 1.5723,-0.44531 2.4331,-0.44531 0.6539,0 1.2992,0.11291 1.9365,0.34131 0.63735,0.22839 1.2256,0.53751 1.7637,0.92578 0.5463,0.39588 1.0226,0.85604 1.4282,1.3814 0.40559,0.5253 0.69828,1.089 0.88038,1.6904 l -0.73243,0.29736 c -0.11588,-0.36543 -0.3182,-0.71942 -0.60791,-1.062 -0.2897,-0.34259 -0.64228,-0.64761 -1.0562,-0.91406 -0.40559,-0.26646 -0.86032,-0.48291 -1.3652,-0.6504 -0.50492,-0.15987 -1.0299,-0.24023 -1.5762,-0.24023 -0.6539,0 -1.254,0.13755 -1.8003,0.41162 -0.5463,0.27407 -1.0192,0.65388 -1.4165,1.1411 -0.39731,0.48724 -0.70669,1.0659 -0.93018,1.7358 -0.21521,0.66996 -0.32373,1.397 -0.32373,2.1812 h 9.4732 c 0,0.64711 -0.14045,1.268 -0.42188,1.8618 -0.27315,0.59383 -0.6611,1.1153 -1.166,1.5645 -0.49664,0.45678 -1.0933,0.81899 -1.7886,1.0854 -0.69529,0.27407 -1.4574,0.41015 -2.2852,0.41015 z m 35.143,0 c -0.97672,0 -1.8759,-0.16336 -2.6953,-0.49072 -0.81945,-0.31975 -1.5266,-0.76085 -2.1226,-1.3242 -0.59596,-0.56337 -1.064,-1.2265 -1.4033,-1.9878 -0.33109,-0.7537 -0.49658,-1.5611 -0.49658,-2.4214 0,-0.82221 0.16549,-1.5941 0.49658,-2.3174 0.33937,-0.71563 0.80736,-1.3433 1.4033,-1.8838 0.59597,-0.53292 1.3031,-0.95642 2.1226,-1.2686 0.81945,-0.31213 1.7186,-0.46728 2.6953,-0.46728 0.96844,0 1.8578,0.16746 2.669,0.50244 0.81945,0.34259 1.5266,0.80275 2.1226,1.3814 0.59596,0.58621 1.0605,1.2669 1.3916,2.0435 0.33937,0.78414 0.5083,1.6188 0.5083,2.502 0,0.79937 -0.16893,1.5455 -0.5083,2.2383 -0.33109,0.7004 -0.79564,1.309 -1.3916,1.8267 -0.59597,0.51769 -1.3031,0.92477 -2.1226,1.2217 -0.81118,0.29691 -1.7005,0.44531 -2.669,0.44531 z m 27.728,0 -1.8135,-0.65039 v -11.26 h 2.5327 v 8.6558 c 0.28143,0.25123 0.57558,0.47999 0.88183,0.68555 0.30626,0.20555 0.6122,0.38123 0.91846,0.52587 0.31454,0.15227 0.62194,0.26929 0.91992,0.35303 0.29799,0.0838 0.57888,0.12598 0.84375,0.12598 0.29799,0 0.56709,-0.0531 0.80713,-0.15967 0.24832,-0.099 0.4639,-0.24737 0.646,-0.44531 0.1821,-0.19794 0.32255,-0.44577 0.42187,-0.74268 0.0993,-0.2893 0.14942,-0.62833 0.14942,-1.0166 v -7.9819 h 2.5195 v 8.3818 c 0,0.48724 -0.082,0.94476 -0.24756,1.3711 -0.16555,0.43394 -0.39291,0.81111 -0.68262,1.1309 -0.2897,0.31975 -0.62903,0.57021 -1.0181,0.75293 -0.38076,0.18271 -0.79522,0.27392 -1.2422,0.27392 -0.85256,0 -1.6933,-0.19738 -2.521,-0.59326 -0.82772,-0.38827 -1.6267,-0.97923 -2.3965,-1.771 v 2.3643 h -0.71924 z m 34.172,0 c -0.64563,0 -1.2708,-0.0721 -1.875,-0.21679 -0.59597,-0.14465 -1.1293,-0.35435 -1.6011,-0.62842 -0.4718,-0.26646 -0.86613,-0.59729 -1.1807,-0.99317 -0.30626,-0.39588 -0.49189,-0.84519 -0.55811,-1.3476 h 2.3101 c 0.0497,0.32736 0.14493,0.63648 0.28565,0.92578 0.14899,0.29691 0.33461,0.55148 0.5581,0.76465 0.23177,0.22078 0.49596,0.39645 0.79395,0.52588 0.29798,0.12942 0.62552,0.19335 0.98144,0.19335 0.37248,0 0.69167,-0.049 0.95654,-0.14794 0.27316,-0.0914 0.49562,-0.25208 0.66944,-0.48047 0.17382,-0.22078 0.30248,-0.51348 0.38525,-0.87891 0.0828,-0.36543 0.12451,-0.81474 0.12451,-1.3477 v -0.73095 c -0.56285,-0.12943 -1.1428,-0.26962 -1.7388,-0.42188 -0.59596,-0.15226 -1.1744,-0.32794 -1.7373,-0.52588 -0.56286,-0.19032 -1.0927,-0.41087 -1.5894,-0.66211 -0.49663,-0.24362 -0.93614,-0.52546 -1.3169,-0.84521 -0.37248,-0.31214 -0.66663,-0.67024 -0.88184,-1.0737 -0.21521,-0.4035 -0.32226,-0.85545 -0.32226,-1.3579 0,-0.41111 0.0751,-0.79648 0.22412,-1.1543 0.15727,-0.35781 0.37138,-0.66547 0.64453,-0.92432 0.28143,-0.25884 0.62076,-0.46033 1.0181,-0.60498 0.40558,-0.15226 0.85688,-0.22851 1.3535,-0.22851 0.53803,0 1.0109,0.0572 1.4165,0.17139 0.41386,0.11419 0.78512,0.25849 1.1162,0.43359 0.33937,0.18271 0.65021,0.3842 0.93164,0.60498 0.2897,0.22078 0.58385,0.43458 0.88183,0.64014 0,-0.35782 0.11197,-0.67779 0.33545,-0.95948 0.23177,-0.27407 0.51266,-0.48787 0.84375,-0.64013 h 2.5327 c -0.33109,0.15226 -0.61199,0.36606 -0.84375,0.64013 -0.22349,0.28169 -0.33545,0.60166 -0.33545,0.95948 v 7.2173 c 0,0.4644 -0.0751,0.88644 -0.22412,1.2671 -0.14072,0.38827 -0.37987,0.71499 -0.71924,0.98145 -0.33937,0.26646 -0.79066,0.47205 -1.3535,0.6167 -0.56285,0.15226 -1.2582,0.22851 -2.0859,0.22851 z m 20.862,0 -1.7754,-0.66211 v -11.249 h 2.5078 v 11.911 h -0.73242 z m 11.399,0 c -0.97672,0 -1.8744,-0.16336 -2.6938,-0.49072 -0.81945,-0.31975 -1.5281,-0.76085 -2.124,-1.3242 -0.59596,-0.56337 -1.064,-1.2265 -1.4033,-1.9878 -0.33109,-0.7537 -0.49658,-1.5611 -0.49658,-2.4214 0,-0.82221 0.16549,-1.5941 0.49658,-2.3174 0.33937,-0.71563 0.80736,-1.3433 1.4033,-1.8838 0.59597,-0.53292 1.3046,-0.95642 2.124,-1.2686 0.81945,-0.31213 1.7171,-0.46728 2.6938,-0.46728 0.96844,0 1.8578,0.16746 2.6689,0.50244 0.81945,0.34259 1.5281,0.80275 2.124,1.3814 0.59597,0.58621 1.059,1.2669 1.3901,2.0435 0.33937,0.78414 0.5083,1.6188 0.5083,2.502 0,0.79937 -0.16893,1.5455 -0.5083,2.2383 -0.33109,0.7004 -0.79417,1.309 -1.3901,1.8267 -0.59596,0.51769 -1.3046,0.92477 -2.124,1.2217 -0.81117,0.29691 -1.7005,0.44531 -2.6689,0.44531 z m 12.256,0 -1.8135,-0.65039 v -11.26 h 2.5327 v 8.6558 c 0.28143,0.25123 0.57558,0.47999 0.88184,0.68555 0.30626,0.20555 0.6122,0.38123 0.91846,0.52587 0.31453,0.15227 0.62193,0.26929 0.91992,0.35303 0.29798,0.0838 0.57887,0.12598 0.84375,0.12598 0.29798,0 0.56708,-0.0531 0.80713,-0.15967 0.24831,-0.099 0.46389,-0.24737 0.64599,-0.44531 0.1821,-0.19794 0.32255,-0.44577 0.42188,-0.74268 0.0993,-0.2893 0.14941,-0.62833 0.14941,-1.0166 v -7.9819 h 2.5195 v 8.3818 c 0,0.48724 -0.082,0.94476 -0.24756,1.3711 -0.16554,0.43394 -0.39291,0.81111 -0.68261,1.1309 -0.28971,0.31975 -0.6305,0.57021 -1.0195,0.75293 -0.38076,0.18271 -0.79375,0.27392 -1.2407,0.27392 -0.85256,0 -1.6933,-0.19738 -2.521,-0.59326 -0.82773,-0.38827 -1.6267,-0.97923 -2.3965,-1.771 v 2.3643 h -0.71924 z m -248.39,-0.21679 v -8.3247 c 0,-0.49485 0.10362,-0.96323 0.31055,-1.4048 0.21521,-0.44156 0.50445,-0.82547 0.86865,-1.1528 0.3642,-0.32733 0.79045,-0.58604 1.2788,-0.77637 0.48836,-0.19032 1.0099,-0.28564 1.5644,-0.28564 0.37248,0 0.76534,0.0639 1.1792,0.19336 0.41387,0.12942 0.81507,0.3051 1.2041,0.52588 0.38904,0.22078 0.74997,0.47945 1.0811,0.77636 0.33937,0.29692 0.62026,0.61278 0.84375,0.94776 v -2.1929 h 2.5078 v 11.694 h -2.5078 v -8.5415 c -0.16555,-0.25884 -0.36787,-0.50667 -0.60791,-0.74267 -0.23177,-0.2284 -0.48418,-0.42988 -0.75733,-0.60499 -0.27315,-0.16748 -0.55551,-0.30093 -0.84521,-0.3999 -0.28143,-0.099 -0.54563,-0.14795 -0.79395,-0.14795 -0.38903,0 -0.7534,0.0531 -1.0928,0.15967 -0.33109,0.1142 -0.62524,0.2667 -0.88184,0.45703 -0.25659,0.19033 -0.45891,0.41498 -0.60791,0.67383 -0.14071,0.25885 -0.21093,0.53248 -0.21093,0.82178 v 8.3247 h -2.5327 z m 86.253,0 5.9971,-11.82 h 0.86866 l 5.7231,11.82 h -1.1426 l -4.3081,-8.8506 -4.4941,8.8506 h -2.644 z m 66.16,0 v -8.3247 c 0,-0.49485 0.10362,-0.96323 0.31055,-1.4048 0.21521,-0.44156 0.50445,-0.82547 0.86865,-1.1528 0.3642,-0.32733 0.79045,-0.58604 1.2788,-0.77637 0.48836,-0.19032 1.0099,-0.28564 1.5644,-0.28564 0.37248,0 0.7668,0.0639 1.1807,0.19336 0.41386,0.12942 0.81507,0.3051 1.2041,0.52588 0.38903,0.22078 0.7485,0.47945 1.0796,0.77636 0.33937,0.29692 0.62173,0.61278 0.84522,0.94776 v -2.1929 h 2.5078 v 11.694 h -2.5078 v -8.5415 c -0.16555,-0.25884 -0.36934,-0.50667 -0.60938,-0.74267 -0.23176,-0.2284 -0.48417,-0.42988 -0.75732,-0.60499 -0.27315,-0.16748 -0.55405,-0.30093 -0.84375,-0.3999 -0.28143,-0.099 -0.5471,-0.14795 -0.79541,-0.14795 -0.38904,0 -0.75341,0.0531 -1.0928,0.15967 -0.33109,0.1142 -0.62377,0.2667 -0.88037,0.45703 -0.25659,0.19033 -0.46038,0.41498 -0.60937,0.67383 -0.14072,0.25885 -0.21094,0.53248 -0.21094,0.82178 v 8.3247 h -2.5327 z m -286.67,-0.6504 c 0.45525,0 0.8815,-0.0804 1.2788,-0.24023 0.3973,-0.15988 0.74499,-0.38042 1.043,-0.66211 0.29798,-0.27407 0.53025,-0.60225 0.6958,-0.98291 0.17382,-0.38065 0.26074,-0.79184 0.26074,-1.2334 l -6.2944,0.0117 c 0.0331,0.44156 0.13672,0.85274 0.31054,1.2334 0.1821,0.38065 0.40947,0.70884 0.68262,0.98291 0.27315,0.28168 0.58253,0.49813 0.93018,0.65039 0.34764,0.15988 0.71201,0.24023 1.0928,0.24023 z m 58.734,0 c 0.45525,0 0.8815,-0.0804 1.2788,-0.24023 0.3973,-0.15988 0.74498,-0.38042 1.043,-0.66211 0.29799,-0.27407 0.53026,-0.60225 0.6958,-0.98291 0.17383,-0.38065 0.26075,-0.79184 0.26075,-1.2334 l -6.2959,0.0117 c 0.0331,0.44156 0.13672,0.85274 0.31055,1.2334 0.1821,0.38065 0.41093,0.70884 0.68408,0.98291 0.27315,0.28168 0.58253,0.49813 0.93017,0.65039 0.34765,0.15988 0.71202,0.24023 1.0928,0.24023 z m 64.459,0 c 0.81945,0 1.5148,-0.16071 2.0859,-0.48046 0.57113,-0.31214 1.0357,-0.74239 1.3916,-1.2905 0.35592,-0.54815 0.61178,-1.1907 0.76904,-1.9292 0.15727,-0.73847 0.23584,-1.5309 0.23584,-2.376 0,-0.58621 -0.082,-1.1417 -0.24755,-1.667 -0.16555,-0.5253 -0.39782,-0.98957 -0.69581,-1.3931 -0.29798,-0.39588 -0.654,-0.71174 -1.0679,-0.94775 -0.41386,-0.23601 -0.86859,-0.35449 -1.3652,-0.35449 -0.69529,0 -1.317,0.16072 -1.8633,0.48047 -0.53803,0.32736 -0.9962,0.76846 -1.377,1.3242 -0.37247,0.55575 -0.65827,1.2066 -0.85693,1.9526 -0.19038,0.74609 -0.28564,1.5453 -0.28564,2.398 0,0.58621 0.0904,1.139 0.27246,1.6567 0.1821,0.5253 0.42272,0.98136 0.7207,1.3696 0.30626,0.38827 0.65738,0.69328 1.0547,0.91406 0.39731,0.22839 0.80686,0.34277 1.229,0.34277 z m 32.099,0 c 0.38076,0 0.75692,-0.0763 1.1294,-0.22851 0.38075,-0.14465 0.72008,-0.35435 1.0181,-0.62842 0.29798,-0.26646 0.5386,-0.59054 0.7207,-0.97119 0.19038,-0.37304 0.28564,-0.78687 0.28564,-1.2436 v -5.7671 c -0.15727,-0.15988 -0.34289,-0.31239 -0.5581,-0.45703 -0.20693,-0.14465 -0.43086,-0.27399 -0.6709,-0.38819 -0.24004,-0.10658 -0.49736,-0.19369 -0.77051,-0.2622 -0.26487,-0.0609 -0.52907,-0.0923 -0.79394,-0.0923 -0.55458,0 -1.0761,0.13755 -1.5645,0.41162 -0.48008,0.28169 -0.90289,0.66149 -1.2671,1.1411 -0.35592,0.48724 -0.63682,1.055 -0.84375,1.7022 -0.20693,0.64712 -0.31054,1.3442 -0.31054,2.0903 0,0.6928 0.0953,1.3245 0.28564,1.8955 0.19038,0.5786 0.44769,1.0728 0.77051,1.4839 0.33109,0.41872 0.7156,0.7428 1.1543,0.97119 0.43869,0.22839 0.91012,0.34277 1.415,0.34277 z m 85.011,0 c 0.45525,0 0.8815,-0.0804 1.2788,-0.24023 0.3973,-0.15988 0.74498,-0.38042 1.043,-0.66211 0.29798,-0.27407 0.53025,-0.60225 0.6958,-0.98291 0.17382,-0.38065 0.26074,-0.79184 0.26074,-1.2334 l -6.2944,0.0117 c 0.0331,0.44156 0.13672,0.85274 0.31054,1.2334 0.1821,0.38065 0.40947,0.70884 0.68262,0.98291 0.27315,0.28168 0.58399,0.49813 0.93164,0.65039 0.34765,0.15988 0.71055,0.24023 1.0913,0.24023 z m 35.304,0 c 0.81945,0 1.5148,-0.16071 2.0859,-0.48046 0.57113,-0.31214 1.0342,-0.74239 1.3901,-1.2905 0.35593,-0.54815 0.61324,-1.1907 0.77051,-1.9292 0.15727,-0.7385 0.23584,-1.5309 0.23584,-2.376 0,-0.58621 -0.0835,-1.1417 -0.24902,-1.667 -0.16555,-0.5253 -0.39636,-0.98957 -0.69434,-1.3931 -0.29798,-0.39588 -0.65401,-0.71174 -1.0679,-0.94775 -0.41389,-0.23601 -0.87006,-0.35449 -1.3667,-0.35449 -0.69529,0 -1.3155,0.16072 -1.8618,0.48047 -0.53802,0.32736 -0.99766,0.76846 -1.3784,1.3242 -0.37248,0.55575 -0.65828,1.2066 -0.85694,1.9526 -0.19037,0.74609 -0.28564,1.5453 -0.28564,2.398 0,0.58621 0.0918,1.139 0.27392,1.6567 0.1821,0.5253 0.42126,0.98136 0.71924,1.3696 0.30626,0.38827 0.65885,0.69328 1.0562,0.91406 0.39731,0.22839 0.80687,0.34277 1.229,0.34277 z m 47.372,0 c 0.38076,0 0.75692,-0.0763 1.1294,-0.22851 0.38075,-0.14465 0.72008,-0.35435 1.0181,-0.62842 0.29799,-0.26646 0.53861,-0.59054 0.72071,-0.97119 0.19037,-0.37304 0.28564,-0.78687 0.28564,-1.2436 v -5.7671 c -0.15727,-0.15988 -0.3429,-0.31239 -0.5581,-0.45703 -0.20694,-0.14465 -0.43086,-0.27399 -0.6709,-0.38819 -0.24004,-0.10658 -0.49736,-0.19369 -0.77051,-0.2622 -0.26487,-0.0609 -0.52907,-0.0923 -0.79395,-0.0923 -0.55457,0 -1.0761,0.13755 -1.5644,0.41162 -0.48008,0.28169 -0.90289,0.66149 -1.2671,1.1411 -0.35592,0.48724 -0.63682,1.055 -0.84375,1.7022 -0.20693,0.64712 -0.31055,1.3442 -0.31055,2.0903 0,0.6928 0.0953,1.3245 0.28565,1.8955 0.19038,0.5786 0.44769,1.0728 0.77051,1.4839 0.33109,0.41872 0.7156,0.7428 1.1543,0.97119 0.4387,0.22839 0.91013,0.34277 1.415,0.34277 z m 46.79,0 c 0.81945,0 1.5148,-0.16071 2.0859,-0.48046 0.57113,-0.31214 1.0342,-0.74239 1.3901,-1.2905 0.35592,-0.54815 0.61324,-1.1907 0.7705,-1.9292 0.15727,-0.73847 0.23584,-1.5309 0.23584,-2.376 0,-0.58621 -0.0835,-1.1417 -0.24902,-1.667 -0.16554,-0.5253 -0.39635,-0.98957 -0.69434,-1.3931 -0.29798,-0.39588 -0.654,-0.71174 -1.0679,-0.94775 -0.41386,-0.23601 -0.87006,-0.35449 -1.3667,-0.35449 -0.69529,0 -1.3155,0.16072 -1.8618,0.48047 -0.53803,0.32736 -0.99767,0.76846 -1.3784,1.3242 -0.37248,0.55575 -0.65828,1.2066 -0.85693,1.9526 -0.19038,0.74609 -0.28565,1.5453 -0.28565,2.398 0,0.58621 0.0918,1.139 0.27393,1.6567 0.1821,0.5253 0.42272,0.98136 0.7207,1.3696 0.30626,0.38827 0.65738,0.69328 1.0547,0.91406 0.39731,0.22839 0.80686,0.34277 1.229,0.34277 z m -325.51,-0.69726 c 0.48008,0 0.91812,-0.10617 1.3154,-0.31934 0.40559,-0.21316 0.75326,-0.53314 1.043,-0.95947 0.29798,-0.42633 0.53025,-0.96275 0.6958,-1.6099 0.16555,-0.6395 0.24902,-1.3897 0.24902,-2.25 0,-0.68518 -0.0918,-1.3087 -0.27392,-1.8721 -0.17383,-0.56337 -0.41789,-1.0508 -0.73242,-1.4619 -0.30626,-0.40349 -0.67064,-0.71672 -1.0928,-0.9375 -0.41386,-0.22078 -0.85681,-0.33105 -1.3286,-0.33105 -0.49664,0 -0.95137,0.0654 -1.3652,0.19482 -0.41386,0.13704 -0.76988,0.31946 -1.0679,0.54785 -0.29798,0.23601 -0.53025,0.507 -0.6958,0.81153 -0.16554,0.31213 -0.24756,0.64296 -0.24756,0.99316 v 5.2983 c 0.19866,0.25123 0.42258,0.49085 0.6709,0.71924 0.2566,0.22839 0.53259,0.42988 0.83057,0.60498 0.29798,0.1751 0.61373,0.31265 0.94482,0.41162 0.33937,0.10658 0.69049,0.15967 1.0547,0.15967 z m 153.79,-3.5405 v -4.3623 c -0.24832,-0.1751 -0.49239,-0.33846 -0.73243,-0.49073 -0.24004,-0.15226 -0.47919,-0.28834 -0.71924,-0.41015 -0.24004,-0.1142 -0.489,-0.20688 -0.7456,-0.27539 -0.2566,-0.0685 -0.5257,-0.10254 -0.80713,-0.10254 -0.26487,0 -0.52072,0.0531 -0.76904,0.15967 -0.24832,0.11419 -0.4688,0.2667 -0.65918,0.45703 -0.19038,0.19794 -0.34262,0.42259 -0.4585,0.67383 -0.11588,0.25884 -0.17431,0.53394 -0.17431,0.82324 0,0.27407 0.0751,0.53539 0.22412,0.78662 0.14899,0.25123 0.35131,0.49231 0.60791,0.7207 0.25659,0.22839 0.55418,0.44073 0.89355,0.63867 0.33937,0.19794 0.69539,0.38037 1.0679,0.54786 0.37248,0.1751 0.75355,0.33171 1.1426,0.46875 0.38903,0.13703 0.76519,0.25816 1.1294,0.36474 z m 141.93,0 v -4.3623 c -0.24831,-0.1751 -0.49238,-0.33846 -0.73242,-0.49073 -0.24004,-0.15226 -0.48066,-0.28834 -0.7207,-0.41015 -0.24004,-0.1142 -0.48755,-0.20688 -0.74414,-0.27539 -0.2566,-0.0685 -0.5257,-0.10254 -0.80713,-0.10254 -0.26487,0 -0.52219,0.0531 -0.77051,0.15967 -0.24832,0.11419 -0.46734,0.2667 -0.65771,0.45703 -0.19038,0.19794 -0.34408,0.42259 -0.45996,0.67383 -0.11589,0.25884 -0.17286,0.53394 -0.17286,0.82324 0,0.27407 0.0737,0.53539 0.22266,0.78662 0.14899,0.25123 0.35278,0.49231 0.60938,0.7207 0.25659,0.22839 0.55418,0.44073 0.89355,0.63867 0.33937,0.19794 0.69539,0.38037 1.0679,0.54786 0.37248,0.1751 0.75355,0.33171 1.1426,0.46875 0.38903,0.13703 0.76519,0.25816 1.1294,0.36474 z m -176.04,-0.68408 v -1.3359 h 6.0469 v 1.3359 z m -328.04,-24.154 c 0.687,-0.001 1.3723,-0.1253 2.0713,-0.4043 h 0.003 c 1.118,-0.45 1.9626,-1.1709 2.5796,-2.0889 0.611,-0.917 0.94729,-2.0177 0.94629,-3.1157 -0.002,-0.686 -0.1253,-1.3722 -0.4043,-2.0742 -0.45,-1.117 -1.1709,-1.964 -2.0889,-2.581 -0.91499,-0.608 -2.0109,-0.94482 -3.1069,-0.94482 h -0.009 c -0.685,0.001 -1.3732,0.12383 -2.0742,0.40283 -1.118,0.45 -1.9626,1.1713 -2.5796,2.0903 -0.61,0.917 -0.94729,2.0163 -0.94629,3.1143 0.002,0.688 0.12484,1.3742 0.40284,2.0742 0.451,1.12 1.1713,1.965 2.0903,2.581 0.917,0.611 2.0167,0.94829 3.1157,0.94629 z"
       fill="url(#linearGradient85)"
       id="path58"
       style="display:inline" />
    <path
       transform="matrix(1.3333,0,0,-1.3333,1726.7,1025.3)"
       d="M 0,0 H 1280 V 769 H 0 Z"
       fill="#000120 icc-color(sRGB-IEC61966-2, 0.1, 0, 0.0039978, 0.125)"
       id="path59"
       style="display:none" />
    <path
       d="m 2085.7319,278.97199 c -8.0279,0.004 -15.7783,2.39621 -22.3449,6.75979 -6.5628,4.35142 -11.9679,10.7607 -15.0923,18.60066 -1.9466,4.8678 -2.8887,9.96058 -2.8862,14.94848 0,8.027 2.3992,15.77856 6.7558,22.34548 1.6703,2.51487 3.6479,4.85644 5.8833,6.96765 l -127.4158,315.17183 h 31.8752 l 122.9642,-304.16322 c 0.085,0 0.1669,0.007 0.25,0.007 8.0185,-0.004 15.7703,-2.39579 22.3358,-6.75851 6.5621,-4.3527 11.9692,-10.762 15.0943,-18.60159 l -13.7184,-5.48077 13.7184,5.48077 c 1.946,-4.86772 2.8867,-9.95974 2.8827,-14.94751 0,-8.02792 -2.3984,-15.77989 -6.7529,-22.34633 -4.3567,-6.56301 -10.7592,-11.96966 -18.6039,-15.09642 -4.8601,-1.944 -9.9453,-2.88369 -14.9305,-2.88369 h -0.02 m -0.015,51.08602 c -1.3248,-9.9e-4 -2.6408,-0.2377 -3.988,-0.774 -2.1537,-0.86671 -3.7733,-2.24991 -4.96,-4.01598 -1.1736,-1.76193 -1.8225,-3.87433 -1.8185,-5.98717 0,-1.31975 0.2435,-2.64118 0.7779,-3.98357 0.8656,-2.15066 2.2507,-3.77552 4.0178,-4.95939 1.7565,-1.17519 3.8717,-1.82151 5.9853,-1.81781 1.3182,9.2e-4 2.6335,0.23792 3.9839,0.77388 2.1472,0.86679 3.7719,2.25278 4.9548,4.01725 1.175,1.76195 1.8242,3.87486 1.8216,5.98721 0,1.31751 -0.2401,2.6374 -0.7793,3.98459 -0.8608,2.15116 -2.2513,3.77444 -4.0091,4.95833 -1.7576,1.17024 -3.8661,1.81666 -5.9639,1.81666 h -0.023"
       fill="url(#linearGradient97)"
       id="path60"
       style="fill:url(#linearGradient97);stroke-width:1.23844"
       inkscape:export-filename="AdharFinalDesign/path60.pdf"
       inkscape:export-xdpi="100.6"
       inkscape:export-ydpi="100.6" />
    <path
       d="m 2014.427,632.43202 c -0.3247,-0.009 -0.6534,-0.0461 -0.976,-0.0461 -8.0291,0.003 -15.773,2.39627 -22.3398,6.75846 -6.5635,4.35404 -11.9686,10.762 -15.0935,18.60194 -1.9448,4.86527 -2.8861,9.96079 -2.8835,14.9497 0,8.02543 2.3918,15.77856 6.7546,22.34542 4.355,6.56132 10.7608,11.96928 18.6011,15.09477 4.8673,1.94656 9.9572,2.88635 14.9444,2.88377 8.0265,-0.003 15.7802,-2.39578 22.3449,-6.75849 6.5622,-4.35405 11.9673,-10.76198 15.0936,-18.60282 l -13.7197,-5.47949 13.7197,5.47949 c 1.9434,-4.86653 2.887,-9.95853 2.8843,-14.94884 0,-8.02658 -2.3993,-15.77826 -6.7592,-22.34488 -1.687,-2.54014 -3.687,-4.90002 -5.9506,-7.02618 l 80.2537,-200.79021 22.9083,57.35569 c -0.2394,0.60404 -0.4935,1.24671 -0.7836,1.95645 -1.543,3.77929 -3.7498,8.97379 -6.3772,15.08468 -9.2638,21.41409 -23.9305,54.13473 -36.2402,81.45803 -0.9342,2.06775 -1.8536,4.09009 -2.7557,6.08131 h 32.4092 c 2.9182,-6.48635 5.9367,-13.18824 8.9494,-19.90714 7.2081,-16.06701 14.41,-32.22527 20.3429,-45.77601 l 23.9278,59.89765 -14.1935,35.51827 h -97.7415 c 5.8265,8.83374 9.592,18.94195 10.9585,29.54812 h 106.7742 l 26.0142,-65.06639 -41.7852,-104.59297 c -0.016,-0.0409 -0.025,-0.0754 -0.043,-0.11388 l -0.01,9.8e-4 -52.3637,-131.06149 z m -0.9927,51.04134 c -1.3146,-9.9e-4 -2.6355,-0.23884 -3.988,-0.77641 -2.1436,-0.86316 -3.7665,-2.24992 -4.9521,-4.01604 -1.1752,-1.76066 -1.8228,-3.87428 -1.8207,-5.98462 0,-1.31983 0.2415,-2.63992 0.7735,-3.98347 0.867,-2.15452 2.2516,-3.7781 4.0174,-4.96202 1.7612,-1.17393 3.8782,-1.8215 5.9866,-1.81903 1.3241,0.003 2.6393,0.23925 3.98,0.77511 l 0.01,9.7e-4 c 2.1515,0.86578 3.7743,2.2516 4.96,4.01605 1.1728,1.76186 1.8143,3.87466 1.8103,5.98581 0,1.31902 -0.2349,2.63757 -0.7712,3.98734 -0.8663,2.15113 -2.2506,3.77557 -4.0164,4.95818 -1.7592,1.17145 -3.8596,1.81781 -5.9683,1.81781 h -0.019"
       fill="url(#linearGradient100)"
       id="path61"
       style="fill:url(#linearGradient100);stroke-width:1.23844" />
    <path
       d="m 2071.6119,634.02935 c 0,0.003 0,0.004 0.01,0.007 l -0.015,-0.0213 c 0,0.005 0.01,0.009 0.01,0.0147"
       fill="url(#linearGradient103)"
       id="path62"
       style="fill:url(#linearGradient103);stroke-width:1.23844" />
    <path
       d="m 2071.6119,634.00469 c 0,9.4e-4 0,9.4e-4 0,9.4e-4 l -0.059,-0.0813 z"
       fill="url(#linearGradient106)"
       id="path63"
       style="fill:url(#linearGradient106);stroke-width:1.23844" />
    <path
       transform="matrix(1.3333 0 0 -1.3333 3453.3 1025.3)"
       d="m0 0h1280v769h-1280z"
       fill="#000120 icc-color(sRGB-IEC61966-2, 0.1, 0, 0.0039978, 0.125)"
       id="path64" />
    <g
       fill="#ffffff icc-color(sRGB-IEC61966-2, 0.1, 1, 1, 1)"
       id="g69">
      <path
         transform="matrix(1.3333 0 0 -1.3333 3967 549.62)"
         d="m0 0h-13.496l24.603 62.29c2.597 6.541 7.372 9.03 14.743 9.03 7.267 0 12.042-2.489 14.535-9.03l23.669-62.29h-13.601l-21.282 56.373c-0.623 1.659-1.764 2.386-3.425 2.386-1.662 0-2.805-0.727-3.531-2.386z"
         clip-path="url(#clipPath109)"
         id="path65" />
      <path
         transform="matrix(1.3333 0 0 -1.3333 4085.4 531.63)"
         d="m0 0c0-0.935 0.415-1.246 1.35-1.246h16.921c13.6 0 19.309 6.748 19.309 22.84 0 15.986-5.709 22.734-19.309 22.734h-16.921c-0.935 0-1.35-0.311-1.35-1.246zm18.271 56.578c20.452 0 31.559-11.419 31.559-35.088 0-23.567-11.004-34.986-31.559-34.986h-24.708c-3.946 0-5.813 1.869-5.813 5.709v58.656c0 3.842 1.867 5.709 5.813 5.709z"
         clip-path="url(#clipPath111)"
         id="path66" />
      <path
         transform="matrix(1.3333 0 0 -1.3333 4190.2 456.19)"
         d="m0 0v-28.547h35.814v28.547h12.357v-70.074h-12.357v29.277h-35.814v-29.277h-12.25v70.074z"
         clip-path="url(#clipPath113)"
         id="path67" />
      <path
         transform="matrix(1.3333 0 0 -1.3333 4289 549.62)"
         d="m0 0h-13.496l24.603 62.29c2.596 6.541 7.372 9.03 14.743 9.03 7.267 0 12.042-2.489 14.534-9.03l23.669-62.29h-13.6l-21.283 56.373c-0.623 1.659-1.763 2.386-3.425 2.386-1.661 0-2.804-0.727-3.531-2.386z"
         clip-path="url(#clipPath115)"
         id="path68" />
      <path
         transform="matrix(1.3333 0 0 -1.3333 4441.4 456.19)"
         d="m0 0c15.78 0 22.528-9.757 22.528-20.969 0-8.721-4.154-18.066-14.845-21.074l16.296-28.031h-13.599l-15.986 27.095h-18.271c-1.143 0-1.766-0.519-1.766-1.765v-25.33h-12.25v27.719c0 7.89 3.322 11.107 11.004 11.107h27.304c6.956 0 9.757 4.775 9.757 9.76 0 4.983-3.009 9.238-9.757 9.238h-38.411v12.25z"
         clip-path="url(#clipPath117)"
         id="path69" />
    </g>
    <path
       transform="matrix(1.3333 0 0 -1.3333 3453.3 1025.3)"
       d="m777.63 356.78h11.834v14.119h-11.834z"
       fill="url(#linearGradient119)"
       id="path70" />
    <g
       fill="#ffffff icc-color(sRGB-IEC61966-2, 0.1, 1, 1, 1)"
       id="g105">
      <path
         transform="matrix(1.3333 0 0 -1.3333 3453.3 1025.3)"
         d="m818.95 356.78h-12.25v70.074h12.25z"
         clip-path="url(#clipPath121)"
         id="path71" />
      <path
         transform="matrix(1.3333 0 0 -1.3333 4609.4 472.52)"
         d="m0 0c-13.496 0-19.414-6.852-19.414-22.942 0-15.989 5.813-22.632 19.414-22.632h9.552c13.496 0 19.309 6.643 19.309 22.736 0 15.986-5.813 22.838-19.309 22.838zm9.552 12.25c20.348 0 31.663-11.627 31.663-35.192 0-23.463-11.211-34.882-31.663-34.882h-9.552c-20.452 0-31.663 11.419-31.663 34.882 0 23.565 11.314 35.192 31.663 35.192z"
         clip-path="url(#clipPath123)"
         id="path72" />
      <path
         transform="matrix(1.3333 0 0 -1.3333 3956.3 581.43)"
         d="m0 0c-2.312 0-3.327-1.173-3.327-3.932 0-2.737 0.997-3.876 3.327-3.876h1.637c2.311 0 3.307 1.139 3.307 3.895 0 2.74-0.996 3.913-3.307 3.913zm1.637 2.098c3.484 0 5.423-1.991 5.423-6.03 0-4.02-1.92-5.975-5.423-5.975h-1.637c-3.504 0-5.424 1.955-5.424 5.975 0 4.039 1.937 6.03 5.424 6.03z"
         clip-path="url(#clipPath125)"
         id="path73" />
      <path
         transform="matrix(1.3333 0 0 -1.3333 3980.4 578.63)"
         d="m0 0c2.702 0 3.859-1.672 3.859-3.592 0-1.813-1.049-3.771-3.859-3.771h-3.736c-0.196 0-0.303-0.088-0.303-0.303v-4.339h-2.098v4.749c0 1.353 0.569 1.904 1.886 1.904h4.32c1.193 0 1.674 0.817 1.674 1.653 0 0.873-0.516 1.601-1.655 1.601h-6.243v2.098z"
         clip-path="url(#clipPath127)"
         id="path74" />
      <path
         transform="matrix(1.3333 0 0 -1.3333 4004.5 578.63)"
         d="m0 0v-2.098h-6.014c-1.26 0-1.812-0.587-1.812-1.512 0-0.979 0.621-1.423 1.832-1.423h5.905v-1.902h-5.959c-1.211 0-1.832-0.482-1.832-1.46 0-0.942 0.586-1.51 1.814-1.51h6.082v-2.1h-6.082c-2.845 0-4.002 1.406-4.002 3.274 0 1.368 0.624 2.294 1.724 2.755-1.119 0.463-1.687 1.387-1.687 2.705 0 1.92 1.189 3.271 4.017 3.271z"
         clip-path="url(#clipPath129)"
         id="path75" />
      <path
         transform="matrix(1.3333 0 0 -1.3333 4014.2 594.64)"
         d="m0 0h-2.097v9.604c0 1.565 0.89 2.615 2.756 2.615 1.672 0 2.419-0.855 2.917-2.223l3.503-7.666c0.145-0.284 0.375-0.498 0.767-0.498 0.444 0 0.712 0.268 0.712 0.675v9.498h2.116v-9.586c0-1.583-0.908-2.633-2.756-2.633-1.674 0-2.438 0.855-2.936 2.223l-3.503 7.668c-0.161 0.353-0.375 0.514-0.748 0.514-0.481 0-0.731-0.267-0.731-0.694z"
         clip-path="url(#clipPath131)"
         id="path76" />
      <path
         transform="matrix(1.3333 0 0 -1.3333 4057.6 578.63)"
         d="m0 0v-2.098h-4.84c-1.901 0-2.472-0.908-2.472-2.027v-1.139h7.24v-1.992h-7.24v-4.749h-2.097v7.861c0 2.403 1.246 4.144 4.428 4.144z"
         clip-path="url(#clipPath133)"
         id="path77" />
      <path
         transform="matrix(1.3333 0 0 -1.3333 4070.9 581.43)"
         d="m0 0c-2.312 0-3.326-1.173-3.326-3.932 0-2.737 0.996-3.876 3.326-3.876h1.637c2.311 0 3.307 1.139 3.307 3.895 0 2.74-0.996 3.913-3.307 3.913zm1.637 2.098c3.484 0 5.424-1.991 5.424-6.03 0-4.02-1.921-5.975-5.424-5.975h-1.637c-3.503 0-5.424 1.955-5.424 5.975 0 4.039 1.937 6.03 5.424 6.03z"
         clip-path="url(#clipPath135)"
         id="path78" />
      <path
         transform="matrix(1.3333 0 0 -1.3333 4089.6 578.63)"
         d="m0 0v-8.022c0-1.189 0.605-1.883 1.993-1.883h2.135c1.352 0 1.974 0.694 1.974 1.883v8.022h2.062v-8.18c0-2.526-1.334-3.825-3.894-3.825h-2.526c-2.56 0-3.878 1.299-3.878 3.825v8.18z"
         clip-path="url(#clipPath137)"
         id="path79" />
      <path
         transform="matrix(1.3333 0 0 -1.3333 4110.3 594.64)"
         d="m0 0h-2.098v9.604c0 1.565 0.89 2.615 2.757 2.615 1.671 0 2.418-0.855 2.916-2.223l3.504-7.666c0.145-0.284 0.375-0.498 0.766-0.498 0.444 0 0.713 0.268 0.713 0.675v9.498h2.115v-9.586c0-1.583-0.907-2.633-2.756-2.633-1.674 0-2.438 0.855-2.936 2.223l-3.502 7.668c-0.162 0.353-0.375 0.514-0.748 0.514-0.482 0-0.731-0.267-0.731-0.694z"
         clip-path="url(#clipPath139)"
         id="path80" />
      <path
         transform="matrix(1.3333 0 0 -1.3333 4134.5 591.55)"
         d="m0 0c0-0.158 0.072-0.212 0.23-0.212h2.901c2.33 0 3.307 1.154 3.307 3.913 0 2.737-0.977 3.895-3.307 3.895h-2.901c-0.158 0-0.23-0.054-0.23-0.214zm3.131 9.693c3.504 0 5.408-1.956 5.408-6.01 0-4.039-1.886-5.995-5.408-5.995h-4.235c-0.674 0-0.994 0.322-0.994 0.978v10.05c0 0.658 0.32 0.977 0.994 0.977z"
         clip-path="url(#clipPath141)"
         id="path81" />
      <path
         transform="matrix(1.3333 0 0 -1.3333 4153.2 594.64)"
         d="m0 0h-2.312l4.216 10.671c0.445 1.122 1.262 1.548 2.526 1.548 1.246 0 2.062-0.426 2.491-1.548l4.055-10.671h-2.33l-3.648 9.658c-0.104 0.284-0.301 0.41-0.587 0.41-0.284 0-0.479-0.126-0.602-0.41z"
         clip-path="url(#clipPath143)"
         id="path82" />
      <path
         transform="matrix(1.3333 0 0 -1.3333 4182.8 578.63)"
         d="m0 0v-2.098h-3.503v-9.907h-2.116v9.907h-3.503v2.098z"
         clip-path="url(#clipPath145)"
         id="path83" />
      <path
         transform="matrix(1.3333 0 0 -1.3333 3453.3 1025.3)"
         d="m553.62 323.02h-2.097v12.005h2.097z"
         clip-path="url(#clipPath147)"
         id="path84" />
      <path
         transform="matrix(1.3333 0 0 -1.3333 4205.3 581.43)"
         d="m0 0c-2.311 0-3.326-1.173-3.326-3.932 0-2.737 0.996-3.876 3.326-3.876h1.637c2.311 0 3.307 1.139 3.307 3.895 0 2.74-0.996 3.913-3.307 3.913zm1.637 2.098c3.484 0 5.424-1.991 5.424-6.03 0-4.02-1.92-5.975-5.424-5.975h-1.637c-3.503 0-5.423 1.955-5.423 5.975 0 4.039 1.937 6.03 5.423 6.03z"
         clip-path="url(#clipPath149)"
         id="path85" />
      <path
         transform="matrix(1.3333 0 0 -1.3333 4224.1 594.64)"
         d="m0 0h-2.097v9.604c0 1.565 0.889 2.615 2.756 2.615 1.671 0 2.419-0.855 2.917-2.223l3.503-7.666c0.145-0.284 0.375-0.498 0.767-0.498 0.444 0 0.712 0.268 0.712 0.675v9.498h2.116v-9.586c0-1.583-0.908-2.633-2.756-2.633-1.675 0-2.438 0.855-2.936 2.223l-3.503 7.668c-0.161 0.353-0.375 0.514-0.748 0.514-0.482 0-0.731-0.267-0.731-0.694z"
         clip-path="url(#clipPath151)"
         id="path86" />
      <path
         transform="matrix(1.3333 0 0 -1.3333 4267.5 578.63)"
         d="m0 0v-2.098h-4.84c-1.901 0-2.472-0.908-2.472-2.027v-1.139h7.24v-1.992h-7.24v-4.749h-2.097v7.861c0 2.403 1.245 4.144 4.428 4.144z"
         clip-path="url(#clipPath153)"
         id="path87" />
      <path
         transform="matrix(1.3333 0 0 -1.3333 4280.8 581.43)"
         d="m0 0c-2.312 0-3.326-1.173-3.326-3.932 0-2.737 0.996-3.876 3.326-3.876h1.637c2.311 0 3.307 1.139 3.307 3.895 0 2.74-0.996 3.913-3.307 3.913zm1.637 2.098c3.484 0 5.424-1.991 5.424-6.03 0-4.02-1.921-5.975-5.424-5.975h-1.637c-3.503 0-5.424 1.955-5.424 5.975 0 4.039 1.937 6.03 5.424 6.03z"
         clip-path="url(#clipPath155)"
         id="path88" />
      <path
         transform="matrix(1.3333 0 0 -1.3333 4305.4 578.63)"
         d="m0 0c2.702 0 3.859-1.672 3.859-3.592 0-1.495-0.713-3.094-2.545-3.61l2.794-4.803h-2.33l-2.74 4.642h-3.131c-0.195 0-0.303-0.088-0.303-0.303v-4.339h-2.097v4.749c0 1.353 0.568 1.904 1.886 1.904h4.676c1.192 0 1.674 0.817 1.674 1.671 0 0.855-0.516 1.583-1.674 1.583h-6.581v2.098z"
         clip-path="url(#clipPath157)"
         id="path89" />
      <path
         transform="matrix(1.3333 0 0 -1.3333 4328.2 594.64)"
         d="m0 0h-2.242l3.718 9.996c0.462 1.368 1.226 2.223 2.828 2.223 1.778 0 2.668-1.05 2.668-2.615v-7.097c0-0.407 0.249-0.675 0.605-0.675 0.319 0 0.568 0.195 0.675 0.498l2.917 7.666c0.463 1.368 1.227 2.223 2.828 2.223 1.778 0 2.667-1.05 2.667-2.615v-9.604h-2.115v9.497c0 0.427-0.249 0.694-0.606 0.694-0.302 0-0.551-0.214-0.659-0.514l-2.917-7.668c-0.46-1.368-1.242-2.223-2.844-2.223-1.762 0-2.651 1.05-2.651 2.633v7.078c0 0.427-0.266 0.694-0.622 0.694-0.321 0-0.533-0.214-0.658-0.514z"
         clip-path="url(#clipPath159)"
         id="path90" />
      <path
         transform="matrix(1.3333 0 0 -1.3333 4364.2 581.43)"
         d="m0 0c-2.312 0-3.326-1.173-3.326-3.932 0-2.737 0.996-3.876 3.326-3.876h1.637c2.311 0 3.307 1.139 3.307 3.895 0 2.74-0.996 3.913-3.307 3.913zm1.637 2.098c3.484 0 5.424-1.991 5.424-6.03 0-4.02-1.92-5.975-5.424-5.975h-1.637c-3.503 0-5.424 1.955-5.424 5.975 0 4.039 1.937 6.03 5.424 6.03z"
         clip-path="url(#clipPath161)"
         id="path91" />
      <path
         transform="matrix(1.3333 0 0 -1.3333 4383 591.55)"
         d="m0 0c0-0.158 0.072-0.212 0.23-0.212h2.901c2.33 0 3.307 1.154 3.307 3.913 0 2.737-0.977 3.895-3.307 3.895h-2.901c-0.158 0-0.23-0.054-0.23-0.214zm3.131 9.693c3.503 0 5.407-1.956 5.407-6.01 0-4.039-1.886-5.995-5.407-5.995h-4.235c-0.674 0-0.994 0.322-0.994 0.978v10.05c0 0.658 0.32 0.977 0.994 0.977z"
         clip-path="url(#clipPath163)"
         id="path92" />
      <path
         transform="matrix(1.3333 0 0 -1.3333 4413.8 578.63)"
         d="m0 0v-2.098h-6.013c-1.261 0-1.813-0.587-1.813-1.512 0-0.979 0.622-1.423 1.832-1.423h5.906v-1.902h-5.959c-1.211 0-1.832-0.482-1.832-1.46 0-0.942 0.586-1.51 1.813-1.51h6.083v-2.1h-6.083c-2.844 0-4.001 1.406-4.001 3.274 0 1.368 0.624 2.294 1.724 2.755-1.119 0.463-1.687 1.387-1.687 2.705 0 1.92 1.189 3.271 4.017 3.271z"
         clip-path="url(#clipPath165)"
         id="path93" />
      <path
         transform="matrix(1.3333 0 0 -1.3333 4429.4 578.63)"
         d="m0 0c2.702 0 3.859-1.672 3.859-3.592 0-1.495-0.712-3.094-2.544-3.61l2.793-4.803h-2.33l-2.74 4.642h-3.131c-0.195 0-0.303-0.088-0.303-0.303v-4.339h-2.096v4.749c0 1.353 0.567 1.904 1.886 1.904h4.675c1.193 0 1.674 0.817 1.674 1.671 0 0.855-0.516 1.583-1.674 1.583h-6.58v2.098z"
         clip-path="url(#clipPath167)"
         id="path94" />
      <path
         transform="matrix(1.3333 0 0 -1.3333 4443.8 594.64)"
         d="m0 0h-2.098v9.604c0 1.565 0.89 2.615 2.756 2.615 1.672 0 2.419-0.855 2.917-2.223l3.503-7.666c0.146-0.284 0.375-0.498 0.767-0.498 0.444 0 0.712 0.268 0.712 0.675v9.498h2.116v-9.586c0-1.583-0.908-2.633-2.756-2.633-1.674 0-2.438 0.855-2.936 2.223l-3.502 7.668c-0.162 0.353-0.375 0.514-0.749 0.514-0.481 0-0.73-0.267-0.73-0.694z"
         clip-path="url(#clipPath169)"
         id="path95" />
      <path
         transform="matrix(1.3333 0 0 -1.3333 4477.6 591.6)"
         d="m0 0c0-0.142 0.088-0.195 0.23-0.195h4.093c1.261 0 1.848 0.587 1.848 1.564 0 1.015-0.621 1.548-1.848 1.548h-4.323zm0 4.661h4.27c1.242 0 1.847 0.463 1.847 1.441 0 0.942-0.552 1.564-1.832 1.564h-4.055c-0.142 0-0.23-0.07-0.23-0.215zm4.216 5.068c2.828 0 4.017-1.334 4.017-3.29 0-1.387-0.602-2.223-1.724-2.668 1.137-0.463 1.778-1.352 1.778-2.74 0-1.92-1.192-3.307-4.017-3.307h-5.338c-0.676 0-0.995 0.321-0.995 0.977v10.05c0 0.658 0.319 0.978 0.995 0.978z"
         clip-path="url(#clipPath171)"
         id="path96" />
      <path
         transform="matrix(1.3333 0 0 -1.3333 4497.9 578.63)"
         d="m0 0v-8.022c0-1.189 0.604-1.883 1.992-1.883h2.135c1.352 0 1.974 0.694 1.974 1.883v8.022h2.062v-8.18c0-2.526-1.334-3.825-3.894-3.825h-2.526c-2.56 0-3.878 1.299-3.878 3.825v8.18z"
         clip-path="url(#clipPath173)"
         id="path97" />
      <path
         transform="matrix(1.3333 0 0 -1.3333 4528.2 578.63)"
         d="m0 0v-2.098h-6.152c-1.085 0-1.568-0.587-1.568-1.422 0-0.731 0.375-1.424 1.779-1.424h2.812c3.271 0 4.036-1.814 4.036-3.538 0-2.029-1.084-3.523-3.824-3.523h-6.688v2.1h6.76c1.139 0 1.653 0.622 1.653 1.492 0 0.785-0.408 1.494-1.886 1.494h-2.791c-3.2 0-3.947 1.798-3.947 3.469 0 1.993 1.065 3.45 3.733 3.45z"
         clip-path="url(#clipPath175)"
         id="path98" />
      <path
         transform="matrix(1.3333 0 0 -1.3333 3453.3 1025.3)"
         d="m813.95 323.02h-2.098v12.005h2.098z"
         clip-path="url(#clipPath177)"
         id="path99" />
      <path
         transform="matrix(1.3333 0 0 -1.3333 4548.6 594.64)"
         d="m0 0h-2.098v9.604c0 1.565 0.89 2.615 2.756 2.615 1.672 0 2.419-0.855 2.917-2.223l3.503-7.666c0.145-0.284 0.375-0.498 0.767-0.498 0.444 0 0.712 0.268 0.712 0.675v9.498h2.116v-9.586c0-1.583-0.908-2.633-2.756-2.633-1.674 0-2.438 0.855-2.936 2.223l-3.503 7.668c-0.161 0.353-0.375 0.514-0.748 0.514-0.481 0-0.73-0.267-0.73-0.694z"
         clip-path="url(#clipPath179)"
         id="path100" />
      <path
         transform="matrix(1.3333 0 0 -1.3333 4582.7 578.63)"
         d="m0 0v-2.098h-6.013c-1.261 0-1.813-0.587-1.813-1.512 0-0.979 0.621-1.423 1.832-1.423h5.905v-1.902h-5.959c-1.211 0-1.832-0.482-1.832-1.46 0-0.942 0.587-1.51 1.814-1.51h6.082v-2.1h-6.082c-2.845 0-4.002 1.406-4.002 3.274 0 1.368 0.624 2.294 1.724 2.755-1.119 0.463-1.686 1.387-1.686 2.705 0 1.92 1.188 3.271 4.017 3.271z"
         clip-path="url(#clipPath181)"
         id="path101" />
      <path
         transform="matrix(1.3333 0 0 -1.3333 4602 578.63)"
         d="m0 0v-2.098h-6.152c-1.085 0-1.567-0.587-1.567-1.422 0-0.731 0.375-1.424 1.779-1.424h2.812c3.27 0 4.036-1.814 4.036-3.538 0-2.029-1.085-3.523-3.825-3.523h-6.687v2.1h6.759c1.139 0 1.654 0.622 1.654 1.492 0 0.785-0.408 1.494-1.886 1.494h-2.791c-3.201 0-3.948 1.798-3.948 3.469 0 1.993 1.066 3.45 3.734 3.45z"
         clip-path="url(#clipPath183)"
         id="path102" />
      <path
         transform="matrix(1.3333 0 0 -1.3333 4622 578.63)"
         d="m0 0v-2.098h-6.152c-1.085 0-1.568-0.587-1.568-1.422 0-0.731 0.375-1.424 1.779-1.424h2.812c3.271 0 4.036-1.814 4.036-3.538 0-2.029-1.084-3.523-3.824-3.523h-6.688v2.1h6.76c1.138 0 1.653 0.622 1.653 1.492 0 0.785-0.408 1.494-1.886 1.494h-2.791c-3.2 0-3.947 1.798-3.947 3.469 0 1.993 1.065 3.45 3.733 3.45z"
         clip-path="url(#clipPath185)"
         id="path103" />
      <path
         transform="matrix(1.3333 0 0 -1.3333 4642.4 578.63)"
         d="m0 0v-2.098h-6.013c-1.261 0-1.813-0.587-1.813-1.512 0-0.979 0.621-1.423 1.832-1.423h5.905v-1.902h-5.959c-1.211 0-1.832-0.482-1.832-1.46 0-0.942 0.587-1.51 1.814-1.51h6.082v-2.1h-6.082c-2.845 0-4.002 1.406-4.002 3.274 0 1.368 0.624 2.294 1.724 2.755-1.119 0.463-1.686 1.387-1.686 2.705 0 1.92 1.188 3.271 4.017 3.271z"
         clip-path="url(#clipPath187)"
         id="path104" />
      <path
         transform="matrix(1.3333 0 0 -1.3333 4661.7 578.63)"
         d="m0 0v-2.098h-6.152c-1.084 0-1.567-0.587-1.567-1.422 0-0.731 0.375-1.424 1.779-1.424h2.812c3.271 0 4.036-1.814 4.036-3.538 0-2.029-1.085-3.523-3.825-3.523h-6.687v2.1h6.759c1.139 0 1.654 0.622 1.654 1.492 0 0.785-0.408 1.494-1.886 1.494h-2.791c-3.2 0-3.948 1.798-3.948 3.469 0 1.993 1.066 3.45 3.734 3.45z"
         clip-path="url(#clipPath189)"
         id="path105" />
    </g>
    <text
       xml:space="preserve"
       style="font-size:236.93px;line-height:0.2;font-family:'Oriya MN';-inkscape-font-specification:'Oriya MN';text-align:center;letter-spacing:0.329071px;text-anchor:middle;opacity:0.99;mix-blend-mode:multiply;fill:#5286f3;fill-opacity:1;stroke:none;stroke-width:2.004;stroke-linejoin:round;stroke-dasharray:none"
       x="2967.0098"
       y="507.59317"
       id="text106"
       transform="scale(0.89840997,1.1130776)"><tspan
         sodipodi:role="line"
         id="tspan106"
         x="2967.1743"
         y="507.59317"
         style="font-style:normal;font-variant:normal;font-weight:normal;font-stretch:normal;font-size:236.93px;font-family:'Arial Black';-inkscape-font-specification:'Arial Black, ';fill:#5286f3;fill-opacity:1;stroke:none;stroke-width:2.004;stroke-dasharray:none">ADHAR</tspan></text>
    <text
       xml:space="preserve"
       style="font-style:normal;font-variant:normal;font-weight:normal;font-stretch:normal;font-size:45.6477px;line-height:9.12955px;font-family:'Sinhala MN';-inkscape-font-specification:'Sinhala MN';text-align:center;letter-spacing:0.347186px;text-anchor:middle;fill:url(#linearGradient192);fill-rule:evenodd;stroke:none;stroke-width:3.29329;stroke-linejoin:round;stroke-opacity:1"
       x="2791.5332"
       y="605.5567"
       id="text107"
       transform="scale(0.95464026,1.047515)"><tspan
         sodipodi:role="line"
         id="tspan107"
         x="2791.7068"
         y="605.5567"
         style="font-style:italic;font-variant:normal;font-weight:300;font-stretch:normal;font-size:45.6477px;line-height:9.12955px;font-family:Superclarendon;-inkscape-font-specification:'Superclarendon Light Italic';letter-spacing:0.347186px;fill:url(#linearGradient192);fill-opacity:1;fill-rule:evenodd;stroke:none;stroke-width:3.29329;stroke-opacity:1">The Open Cloud-Native Foundation</tspan></text>
  </g>
</svg>
